<svg width="312" height="288" viewBox="0 0 312 288" fill="none" xmlns="http://www.w3.org/2000/svg">
<path d="M146.964 49.6379C135.564 62.4379 131.364 74.2379 131.364 95.2379C131.364 117.438 137.764 131.838 158.164 154.838C170.964 169.438 175.764 180.438 176.964 198.838L177.964 215.438L168.164 234.238C154.564 260.638 146.164 278.038 144.564 283.238L143.164 287.838H187.164H231.364L230.364 282.238C229.964 279.238 228.564 270.838 227.364 263.438C226.164 256.038 223.564 245.838 221.364 240.838C216.364 229.038 199.764 204.438 186.164 188.238C172.164 171.838 167.564 161.238 160.564 129.438C159.764 126.238 157.564 123.638 154.764 122.838C148.764 120.838 139.364 111.838 139.364 108.038C139.564 105.838 140.364 106.638 142.164 109.638L144.964 114.638L146.364 108.238C146.964 104.638 148.564 101.838 149.564 101.838C150.764 101.838 150.764 103.438 149.364 105.638C146.564 111.238 146.764 113.238 151.364 117.838C157.564 124.038 161.364 123.038 160.764 115.038C160.564 111.238 159.764 108.638 158.964 109.238C157.964 109.638 157.364 109.238 157.364 108.038C157.364 107.038 158.364 105.438 159.564 104.838C160.764 104.038 161.564 99.2379 161.364 94.0379C161.164 89.0379 161.164 84.2379 161.364 83.2379C161.764 81.6379 161.964 75.6379 161.564 70.4379C161.364 65.6379 158.164 69.4379 155.564 77.8379L153.364 84.8379L154.364 78.0379C154.964 74.2379 156.764 69.6379 158.564 67.6379C160.964 65.0379 161.164 63.2379 159.564 60.2379C158.364 58.0379 158.164 55.8379 158.764 55.0379C159.364 54.4379 159.364 53.8379 158.564 53.8379C155.764 53.8379 148.364 64.6379 148.964 67.8379C149.364 70.2379 149.164 70.2379 147.764 68.0379C146.364 66.0379 144.964 67.6379 142.764 74.0379C140.964 78.8379 139.164 84.6379 138.564 86.8379C137.964 89.0379 137.764 86.8379 138.364 82.0379C138.764 75.4379 141.164 70.6379 148.364 61.4379C156.364 51.0379 157.364 49.0379 154.964 46.6379C152.564 44.0379 151.364 44.6379 146.964 49.6379ZM150.764 81.2379C150.164 83.2379 149.764 81.6379 149.764 77.8379C149.764 74.0379 150.164 72.4379 150.764 74.2379C151.164 76.2379 151.164 79.4379 150.764 81.2379ZM149.964 89.6379C149.364 91.8379 146.964 95.2379 144.764 97.2379C140.364 100.838 140.364 100.838 143.964 96.6379C145.764 94.4379 147.364 91.0379 147.364 89.2379C147.364 87.4379 148.164 85.8379 149.164 85.8379C150.164 85.8379 150.564 87.6379 149.964 89.6379Z" fill="#404040"/>
<path d="M76.3638 1.0379C63.3638 3.83792 55.5638 6.63791 56.5638 8.0379C56.9638 8.83792 59.5638 8.83792 62.1638 7.83792C64.5638 7.0379 67.9638 7.0379 69.3638 7.83792C70.9638 8.83792 72.9638 9.0379 74.1638 8.4379C75.1638 7.63791 74.3638 6.4379 72.1638 5.63791C69.1638 4.4379 69.1638 4.0379 71.5638 4.0379C73.3638 3.83792 75.9638 5.23792 77.3638 6.83792C79.3638 9.23792 78.7638 9.83792 74.5638 11.0379C67.3638 12.8379 68.1638 15.2379 75.9638 15.2379C79.3638 15.2379 80.7638 14.8379 78.7638 14.4379C75.5638 13.6379 75.7638 13.0379 80.1638 9.63791C85.1638 5.63791 89.5638 4.83792 92.1638 7.23792C92.9638 8.0379 95.9638 8.63791 98.9638 8.83792C101.964 8.83792 104.164 9.83792 103.964 10.8379C103.764 12.2379 106.364 12.6379 110.364 12.2379C115.764 11.6379 117.564 12.4379 120.364 16.6379C122.364 19.4379 124.964 21.8379 126.564 21.8379C130.364 21.8379 139.364 34.4379 139.364 39.6379C139.364 42.0379 138.564 43.4379 137.364 42.8379C136.364 42.2379 135.164 43.6379 135.164 46.2379C134.964 49.6379 134.564 49.8379 133.964 47.2379C133.564 45.4379 131.764 43.8379 130.164 43.8379C126.764 43.8379 126.364 49.0379 129.964 50.4379C131.364 51.0379 130.964 51.6379 128.964 51.6379C124.564 51.8379 124.364 54.4379 128.364 57.8379C133.164 61.8379 132.164 67.8379 126.364 67.8379C123.764 67.8379 120.764 69.0379 119.964 70.4379C117.564 74.6379 107.764 80.2379 105.564 79.0379C104.564 78.2379 102.564 79.4379 101.364 81.2379C99.7638 84.2379 99.5638 83.8379 100.564 79.2379C101.964 73.2379 99.3638 72.0379 95.3638 76.8379C93.3638 79.2379 93.3638 80.4379 95.3638 82.8379C97.3638 85.2379 97.3638 85.8379 95.1638 85.8379C93.7638 85.8379 90.5638 87.8379 87.9638 90.2379C85.3638 92.6379 83.3638 93.4379 83.3638 92.2379C83.3638 90.8379 84.3638 89.8379 85.7638 89.8379C86.9638 89.8379 87.5638 89.2379 86.9638 88.6379C86.1638 88.0379 83.3638 89.0379 80.5638 90.8379C74.7638 94.6379 68.9638 93.4379 61.7638 86.8379C56.3638 81.8379 52.3638 82.2379 49.1638 88.0379C47.5638 91.0379 47.9638 91.4379 50.7638 90.4379C52.7638 89.8379 53.9638 89.6379 53.3638 90.4379C52.3638 91.6379 31.1638 99.8379 29.1638 99.8379C27.1638 99.8379 17.3638 90.2379 17.3638 88.2379C17.3638 87.2379 16.1638 85.2379 14.5638 84.0379C11.3638 81.2379 10.9638 74.2379 13.9638 70.2379C15.1638 68.6379 15.1638 67.8379 13.5638 67.8379C12.3638 67.8379 11.3638 65.6379 11.3638 63.0379C11.3638 59.2379 12.1638 58.6379 16.3638 59.4379C20.5638 60.2379 21.3638 59.6379 21.3638 55.4379C21.3638 48.4379 18.9638 47.0379 15.9638 52.2379C14.5638 54.8379 13.5638 55.8379 13.3638 54.6379C13.3638 50.4379 25.5638 33.6379 30.3638 31.4379C33.1638 30.2379 35.3638 28.4379 35.3638 27.4379C35.3638 26.4379 34.5638 26.2379 33.3638 26.8379C32.1638 27.4379 31.9638 26.6379 32.5638 25.0379C33.1638 23.2379 34.9638 21.8379 36.3638 21.8379C37.7638 21.8379 41.1638 19.6379 43.9638 16.8379C47.3638 13.2379 49.3638 12.4379 49.9638 14.2379C50.5638 16.2379 51.7638 16.0379 54.5638 13.2379C58.1638 9.83792 57.9638 9.83792 52.3638 10.2379C44.3638 10.8379 28.1638 21.0379 18.5638 31.8379C8.96378 42.6379 3.56378 54.6379 1.16378 71.0379C-0.43622 82.6379 -0.0362198 85.2379 4.76378 98.2379C9.76378 112.238 10.5638 119.038 8.96378 139.838C8.36378 146.438 8.76378 146.838 15.3638 147.838C21.5638 148.638 22.3638 149.438 22.3638 154.838C22.5638 159.438 23.5638 161.038 27.3638 161.838C30.7638 162.638 31.5638 163.438 29.7638 164.638C26.3638 166.638 26.7638 171.838 30.1638 171.838C34.7638 171.838 39.3638 177.638 39.3638 183.638C39.3638 186.638 40.3638 190.038 41.7638 191.438C45.5638 195.238 59.5638 194.238 67.9638 189.838C77.7638 184.638 81.1638 185.838 90.1638 197.238C96.7638 205.838 97.3638 207.438 97.3638 220.438C97.3638 233.438 96.5638 235.838 85.3638 258.038C78.7638 271.038 73.3638 283.038 73.3638 284.838C73.3638 287.438 78.1638 287.838 107.164 287.838C140.564 287.838 141.164 287.838 142.564 283.238C143.964 278.438 156.364 253.238 168.164 231.238C174.564 219.038 175.364 215.838 175.364 202.638C175.364 183.838 170.564 172.638 152.564 150.038C134.964 127.838 133.764 125.438 129.364 103.038C125.764 85.6379 134.764 58.4379 148.164 46.0379L153.164 41.2379L147.764 34.0379C129.164 9.4379 100.564 -3.9621 76.3638 1.0379Z" fill="#F2D522"/>
<path d="M61.5641 10.4379C56.3641 13.0379 53.5641 17.8379 57.1641 17.8379C58.3641 17.8379 59.3641 16.4379 59.3641 14.6379C59.3641 13.0379 60.1641 12.0379 61.1641 12.6379C62.1641 13.2379 63.9641 12.4379 65.3641 10.8379C68.3641 7.23789 67.7641 7.23789 61.5641 10.4379Z" fill="#F2D522"/>
<path d="M82.9637 9.03789C81.3637 10.4379 85.5637 17.8379 87.9637 17.8379C88.9637 17.8379 88.9637 15.8379 88.3637 13.2379C87.3637 9.63789 87.5637 9.43789 89.3637 11.8379C91.3637 14.4379 91.5637 14.4379 90.7637 11.8379C89.9637 8.63789 84.9637 6.83789 82.9637 9.03789Z" fill="#F2D522"/>
<path d="M106.763 15.2377C104.363 15.8377 103.363 17.6377 103.763 20.4377C104.563 25.8377 108.163 25.4377 108.963 19.8377C109.563 15.8377 111.563 14.6377 113.963 17.0377C114.563 17.8377 113.963 19.6377 112.363 21.2377C110.763 22.8377 109.363 24.8377 109.363 25.8377C109.363 27.8377 115.563 29.4377 118.963 28.4377C122.963 27.0377 121.563 24.0377 117.363 25.2377C115.163 25.8377 113.363 25.4377 113.363 24.2377C113.363 23.0377 115.363 21.8377 117.763 21.4377C121.963 20.8377 121.963 20.6377 118.563 17.2377C114.963 13.8377 113.363 13.4377 106.763 15.2377Z" fill="#F2D522"/>
<path d="M91.3643 18.2375C91.3643 19.4375 92.5643 19.8375 94.1643 19.2375C95.7643 18.6375 97.5643 18.8375 98.1643 20.0375C98.5643 21.0375 98.7643 20.8375 98.5643 19.6375C97.9643 16.6375 91.3643 15.4375 91.3643 18.2375Z" fill="#F2D522"/>
<path d="M65.9637 19.2381C67.7637 19.6381 70.9637 19.6381 72.9637 19.2381C74.7637 18.6381 73.1637 18.2381 69.3637 18.2381C65.5637 18.2381 63.9637 18.6381 65.9637 19.2381Z" fill="#F2D522"/>
<path d="M40.1641 22.838C39.3641 24.438 38.1641 25.238 37.1641 24.638C36.1641 24.038 35.9641 25.038 36.5641 26.638C37.5641 29.038 38.5641 29.238 41.5641 27.638C43.7641 26.638 44.9641 24.838 44.3641 23.838C43.7641 22.838 44.9641 21.638 46.7641 21.238C49.5641 20.438 49.1641 20.238 45.7641 20.038C43.3641 20.038 40.7641 21.238 40.1641 22.838Z" fill="#F2D522"/>
<path d="M50.9635 25.2383C49.3635 28.6383 46.7635 30.6383 44.9635 30.2383C43.1635 30.0383 40.5635 31.4383 39.3635 33.8383C37.3635 37.4383 37.5635 37.6383 42.1635 35.8383C47.5635 33.8383 50.5635 36.0383 48.1635 40.2383C46.9635 42.2383 47.3635 42.2383 49.5635 40.2383C51.3635 38.4383 51.5635 37.2383 49.9635 35.6383C48.1635 33.8383 48.5635 32.2383 51.3635 29.2383C53.5635 27.0383 54.7635 24.4383 54.1635 23.4383C53.5635 22.6383 54.5635 21.8383 56.3635 21.8383C58.7635 21.8383 59.3635 22.8383 58.3635 25.2383C57.3635 28.0383 57.7635 28.2383 59.5635 26.4383C60.7635 25.2383 61.1635 23.2383 60.5635 22.0383C58.1635 18.2383 53.5635 19.6383 50.9635 25.2383Z" fill="#F2D522"/>
<path d="M63.3643 27.6376C63.3643 32.2376 63.5643 32.4376 67.3643 28.8376C69.5643 26.8376 71.9643 25.8376 72.5643 26.4376C73.3643 27.2376 72.3643 28.2376 70.5643 29.0376C68.7643 29.6376 67.3643 31.2376 67.3643 32.2376C67.3643 33.4376 68.5643 33.2376 70.3643 31.8376C73.5643 29.0376 74.5643 31.8376 71.3643 35.0376C70.3643 36.0376 70.1643 38.0376 71.3643 39.8376C72.7643 42.0376 73.3643 41.6376 74.1643 37.6376C74.7643 35.0376 74.9643 31.0376 74.5643 28.8376C73.9643 26.6376 73.5643 24.4376 73.5643 23.8376C73.3643 23.2376 71.1643 22.8376 68.3643 22.8376C64.3643 22.8376 63.3643 23.8376 63.3643 27.6376Z" fill="#F2D522"/>
<path d="M82.3634 27.8379C79.5634 31.0379 79.3634 32.2379 81.3634 34.8379C82.7634 36.4379 84.7634 37.2379 85.9634 36.4379C87.1634 35.6379 87.5634 36.4379 86.7634 38.4379C86.1634 40.4379 86.3634 41.8379 87.3634 41.8379C90.1634 41.8379 89.7634 37.4379 86.3634 33.0379C84.7634 31.0379 83.9634 28.4379 84.7634 27.2379C85.3634 26.2379 86.5634 26.4379 87.3634 27.8379C88.3634 29.4379 90.3634 29.8379 92.5634 29.0379C95.7634 27.8379 95.7634 27.4379 93.3634 25.8379C88.9634 23.0379 86.3634 23.4379 82.3634 27.8379Z" fill="#F2D522"/>
<path d="M127.364 26.8374C130.164 28.4374 131.164 29.8374 129.964 30.0374C128.564 30.2374 126.164 30.4374 124.964 30.6374C120.964 31.0374 121.364 39.2374 125.164 38.8374C133.564 38.2374 136.564 29.6374 129.564 25.8374C123.564 22.8374 121.764 23.6374 127.364 26.8374Z" fill="#F2D522"/>
<path d="M107.364 29.6382C107.364 30.6382 108.764 32.4382 110.364 33.8382C112.764 35.8381 113.364 35.8381 113.364 33.2382C113.364 31.6382 111.964 29.8382 110.364 29.0382C108.764 28.4382 107.364 28.6382 107.364 29.6382Z" fill="#F2D522"/>
<path d="M94.3642 31.8379C92.9642 34.2379 94.7642 37.8379 97.3642 37.8379C98.3642 37.8379 98.9642 36.0379 98.7642 33.8379C98.5642 29.6379 96.3642 28.6379 94.3642 31.8379Z" fill="#F2D522"/>
<path d="M55.9634 39.2379C55.5634 43.0379 56.3634 45.8379 57.5634 45.8379C58.7634 45.8379 59.3634 44.4379 58.7634 43.0379C57.9634 41.0379 58.5634 40.4379 60.1634 41.0379C61.7634 41.6379 63.3634 40.2379 63.9634 38.0379C64.5634 35.6379 64.1634 34.2379 63.1634 35.0379C62.1634 35.6379 61.3634 35.2379 61.3634 34.2379C61.3634 33.2379 60.1634 32.4379 58.9634 32.4379C57.5634 32.4379 56.1634 35.4379 55.9634 39.2379Z" fill="#F2D522"/>
<path d="M114.764 37.2379C114.364 38.2379 114.564 41.0379 115.164 43.6379C116.364 47.6379 116.764 48.0379 118.964 45.4379C120.364 43.6379 120.964 40.8379 120.164 39.0379C118.964 35.6379 116.164 34.8379 114.764 37.2379Z" fill="#F2D522"/>
<path d="M29.9634 42.0379C30.1634 44.0379 31.3634 45.8379 32.7634 45.8379C36.3634 45.8379 35.9634 40.4379 32.5634 39.2379C30.5634 38.4379 29.7634 39.2379 29.9634 42.0379Z" fill="#F2D522"/>
<path d="M106.364 41.8379C105.764 42.8379 106.564 43.8379 108.364 43.8379C110.164 43.8379 110.964 44.6379 110.364 45.8379C109.764 46.8379 110.164 47.8379 111.164 47.8379C113.764 47.8379 113.764 47.2379 112.164 43.0379C110.764 39.4379 108.164 38.8379 106.364 41.8379Z" fill="#F2D522"/>
<path d="M44.5641 52.2378C42.5641 54.4378 41.5641 56.8378 42.1641 57.4378C42.9641 58.0378 44.5641 57.2378 45.9641 55.4378C47.1641 53.6378 49.7641 51.8378 51.1641 51.4378C53.7641 50.6378 53.7641 50.4378 50.9641 49.4378C49.1641 48.6378 46.5641 49.8378 44.5641 52.2378Z" fill="#F2D522"/>
<path d="M60.1633 50.2383C59.1633 51.6383 59.7633 52.0383 61.5633 51.0383C63.1633 50.2383 62.5633 51.0383 60.5633 52.6383C56.9633 55.4383 56.9633 55.8383 59.9633 55.8383C63.1633 55.8383 63.1633 56.2383 60.1633 61.2383C58.3633 64.4383 58.1633 65.4383 59.5633 63.8383C61.1633 62.0383 63.9633 61.0383 65.9633 61.4383C68.1633 61.8383 69.3633 60.8383 69.3633 58.8383C69.3633 56.0383 68.7633 55.8383 66.5633 57.6383C64.3633 59.6383 63.7633 59.4383 64.1633 57.4383C64.3633 56.0383 65.1633 53.8383 65.9633 52.6383C67.3633 50.2383 65.9633 47.8383 63.1633 47.8383C62.3633 47.8383 60.9633 48.8383 60.1633 50.2383Z" fill="#F2D522"/>
<path d="M93.3642 52.838C96.3642 56.438 100.164 56.838 98.1642 53.438C97.1642 51.838 97.7642 51.638 99.9642 52.438C101.964 53.038 103.364 52.838 103.364 51.838C103.364 50.638 100.564 49.838 97.1642 49.838C91.7642 49.838 91.1642 50.238 93.3642 52.838Z" fill="#F2D522"/>
<path d="M77.1637 59.2378C76.9637 60.2378 76.9637 61.4378 77.1637 62.2378C77.1637 63.2378 76.3637 63.8378 74.9637 63.8378C73.7637 63.8378 73.1637 64.4378 73.7637 65.0378C75.3637 66.6378 83.3637 62.2378 83.3637 59.8378C83.3637 57.4378 77.5637 57.0378 77.1637 59.2378Z" fill="#F2D522"/>
<path d="M91.364 60.4374C76.764 68.2374 76.764 68.2374 79.564 70.0374C84.164 73.0374 86.164 72.2374 91.964 64.8374C94.964 61.0374 97.364 57.8374 96.964 57.8374C96.564 57.8374 94.164 59.0374 91.364 60.4374Z" fill="#F2D522"/>
<path d="M104.164 59.4375C103.164 60.2375 101.964 63.0375 101.764 65.8375C101.564 69.4375 101.964 70.0375 103.364 67.8375C104.364 66.2375 104.764 64.4375 104.164 63.6375C103.764 62.8375 104.564 61.8375 105.764 61.2375C107.164 60.8375 107.964 59.8375 107.364 59.2375C106.764 58.6375 105.364 58.6375 104.164 59.4375Z" fill="#F2D522"/>
<path d="M94.1637 64.6376C92.1637 66.2376 91.1637 68.2376 91.9637 69.0376C92.7637 69.8376 94.9637 69.0376 96.7637 67.2376C101.164 63.0376 99.1637 61.0376 94.1637 64.6376Z" fill="#F2D522"/>
<path d="M41.364 67.0381C44.364 70.6381 46.764 70.6381 46.764 67.2381C46.764 65.8381 44.964 64.4381 42.964 64.4381C39.764 64.0381 39.564 64.6381 41.364 67.0381Z" fill="#F2D522"/>
<path d="M112.164 67.0379C112.964 69.4379 112.564 70.0379 110.364 69.0379C108.164 68.2379 107.364 69.4379 107.364 73.4379L107.564 78.8379L111.364 74.0379C113.564 71.6379 114.964 68.6379 114.364 67.8379C113.764 66.8379 114.564 65.6379 115.764 65.2379C117.364 64.6379 116.764 64.0379 114.564 64.0379C111.964 63.8379 111.364 64.8379 112.164 67.0379Z" fill="#F2D522"/>
<path d="M72.3638 71.8377C71.5638 73.0377 70.3638 73.4377 69.5638 73.0377C68.7638 72.4377 67.9638 74.0377 67.7638 76.6377C67.5638 79.2377 69.1638 82.0377 71.9638 83.6377C75.9638 86.2377 76.1638 86.2377 73.5638 83.0377C71.3638 80.4377 71.3638 78.6377 72.9638 74.8377C75.1638 69.8377 74.7638 67.8377 72.3638 71.8377Z" fill="#F2D522"/>
<path d="M41.3643 73.6375C41.3643 74.8375 39.9643 75.8375 38.3643 75.8375C36.7643 75.8375 35.3643 76.6375 35.3643 77.8375C35.3643 80.8375 39.1643 80.2375 42.5643 77.0375C44.3643 75.2375 44.5643 73.6375 43.3643 72.8375C42.3643 72.2375 41.3643 72.6375 41.3643 73.6375Z" fill="#F2D522"/>
<path d="M76.7641 73.2379C74.5641 75.2379 75.1641 81.8379 77.3641 81.8379C78.5641 81.8379 79.3641 79.6379 79.3641 76.8379C79.3641 71.6379 78.9641 71.0379 76.7641 73.2379Z" fill="#F2D522"/>
<path d="M26.3642 95.8379C26.9642 96.8379 28.9642 97.8379 30.5642 97.8379C32.1642 97.8379 32.9642 96.8379 32.3642 95.8379C31.7642 94.6379 29.7642 93.8379 28.1642 93.8379C26.5642 93.8379 25.7642 94.6379 26.3642 95.8379Z" fill="#F2D522"/>
<path d="M192.364 23.0379C181.764 26.2379 164.964 34.0379 158.564 38.8379C155.564 41.0379 155.164 42.6379 156.564 45.8379C158.364 49.8379 158.564 49.8379 165.364 44.6379C174.764 37.6379 186.764 32.6379 197.364 31.2379L206.364 30.0379L197.164 32.4379C190.564 34.2379 188.164 35.6379 188.764 37.8379C189.364 40.0379 189.164 40.2379 187.964 38.4379C186.564 36.6379 183.764 37.2379 175.964 40.8379C167.764 44.4379 165.764 46.2379 166.564 49.2379C167.164 51.4379 166.164 54.2379 164.564 55.6379C161.164 58.4379 160.164 65.8379 163.164 65.8379C163.964 65.8379 164.364 68.0379 163.764 71.0379C162.764 76.6379 169.764 85.6379 175.164 86.0379C177.364 86.0379 177.564 86.4379 175.764 87.2379C174.364 87.8379 170.964 86.8379 168.364 85.0379C163.564 82.0379 163.364 82.0379 163.364 85.4379C163.364 89.8379 168.164 94.6379 175.364 97.8379C180.164 99.8379 180.164 99.8379 174.364 98.6379C171.164 98.0379 167.764 96.6379 167.164 95.4379C165.564 92.8379 161.364 95.2379 161.364 98.8379C161.364 100.238 162.564 102.038 163.964 102.438C165.964 103.238 165.964 103.638 163.964 103.638C160.164 103.838 160.764 109.838 164.964 114.438C168.164 118.238 168.164 118.438 164.964 117.238C162.564 116.438 161.364 117.038 161.364 119.038C161.364 121.838 163.564 122.238 176.964 121.238L192.364 120.238L176.964 122.438C160.964 124.438 157.364 126.838 166.364 129.038C176.164 131.438 200.964 123.438 195.164 119.638C193.364 118.438 195.564 118.038 201.364 118.038C206.364 118.038 208.964 118.638 207.364 119.238C205.764 119.838 198.964 123.038 192.364 126.238C183.164 130.838 178.164 132.038 170.964 131.438C163.164 131.038 161.564 131.438 162.364 133.838C162.764 135.438 163.764 139.438 164.364 142.838C166.564 152.638 175.964 174.438 179.964 178.838C182.164 181.038 187.564 187.838 192.164 193.838C196.564 199.838 200.764 205.238 201.364 205.838C202.164 206.438 205.564 211.238 208.964 216.438C222.764 237.238 227.964 251.438 230.364 274.238L231.764 287.838H260.564C276.364 287.838 289.364 287.438 289.364 286.838C289.364 286.238 286.164 280.838 282.364 274.838C263.964 245.838 258.764 227.438 263.364 207.438C267.164 190.638 269.564 188.238 280.764 188.438C285.964 188.638 293.164 187.438 296.364 185.838C301.964 182.838 302.364 182.038 302.364 171.438C302.364 165.038 303.364 159.038 304.964 157.638C306.164 156.238 307.364 153.438 307.364 151.638C307.364 149.638 306.164 147.638 304.964 147.238C302.964 146.438 303.164 145.638 305.364 144.038C307.964 142.238 307.964 141.238 304.764 136.038C301.564 130.638 301.564 129.838 304.564 127.038C306.164 125.238 308.564 123.838 309.564 123.838C314.364 123.838 310.564 114.438 302.564 106.638C293.964 98.4379 292.564 95.4379 287.364 74.6379C284.764 64.0379 270.764 43.2379 260.764 35.4379C243.164 21.4379 214.964 16.4379 192.364 23.0379ZM216.964 29.2379C214.964 29.6379 211.764 29.6379 209.964 29.2379C207.964 28.6379 209.564 28.2379 213.364 28.2379C217.164 28.2379 218.764 28.6379 216.964 29.2379ZM248.764 36.0379C258.964 40.4379 267.364 48.2379 267.364 53.2379C267.364 55.8379 266.164 54.8379 263.364 50.4379C258.964 43.0379 251.364 38.6379 234.364 33.4379C223.364 30.2379 223.164 30.0379 231.364 31.0379C236.164 31.8379 243.964 34.0379 248.764 36.0379ZM211.364 56.2379C214.564 63.6379 216.364 65.8379 218.764 65.0379C220.364 64.2379 222.964 64.6379 224.364 65.8379C226.164 67.4379 227.364 67.4379 228.364 65.8379C228.964 64.8379 230.764 63.8379 232.364 63.8379C234.164 63.8379 233.764 65.4379 230.764 68.8379C227.964 71.8379 225.964 72.8379 225.564 71.2379C224.364 67.4379 220.764 65.8379 217.964 68.2379C216.164 69.6379 214.964 68.8379 213.164 65.2379C211.964 62.4379 207.964 58.6379 204.564 56.8379L198.364 53.6379L204.164 54.8379C209.564 56.0379 209.764 55.8379 207.164 52.4379C203.964 48.2379 199.164 43.8379 193.964 40.2379C191.964 38.8379 194.164 39.6379 198.764 42.0379C205.164 45.4379 208.164 48.6379 211.364 56.2379ZM256.164 53.6379C255.164 54.6379 237.564 45.6379 235.964 43.2379C235.364 42.4379 239.964 44.0379 245.964 47.2379C251.964 50.2379 256.564 53.2379 256.164 53.6379ZM192.964 50.8379C190.164 57.2379 193.764 62.2379 200.364 60.6379C202.964 60.0379 205.564 60.6379 206.564 62.0379C207.564 63.8379 206.964 64.0379 204.764 63.2379C198.564 60.8379 195.364 63.6379 197.564 69.2379C199.764 75.2379 199.764 75.8379 197.764 75.8379C196.964 75.8379 196.164 74.0379 195.964 71.6379C195.764 69.4379 194.164 65.2379 192.364 62.4379C189.764 58.4379 187.764 57.6379 183.164 58.2379C179.964 58.8379 177.364 58.4379 177.364 57.4379C177.364 56.6379 179.964 55.8379 182.964 55.8379C187.164 55.8379 189.364 54.4379 190.964 50.8379C192.164 48.0379 193.764 45.8379 194.364 45.8379C194.764 45.8379 194.364 48.0379 192.964 50.8379ZM218.764 51.8379C224.164 56.6379 227.364 57.8379 234.564 57.8379C239.564 57.8379 245.964 59.0379 248.964 60.6379C253.764 63.0379 254.964 63.0379 258.364 60.6379C260.364 59.0379 263.164 57.8379 264.164 57.8379C265.364 58.0379 264.164 59.2379 261.364 60.6379C257.164 63.0379 256.564 64.6379 257.164 72.6379C257.564 80.2379 256.764 83.4379 252.364 89.0379C249.364 93.0379 246.564 95.6379 245.964 95.0379C245.364 94.6379 247.364 91.6379 250.164 88.4379C261.564 76.0379 253.764 59.8379 236.164 59.8379C227.564 59.8379 215.364 54.8379 215.364 51.4379C215.364 50.6379 213.964 49.8379 212.364 49.8379C210.764 49.8379 209.364 48.8379 209.364 47.8379C209.364 44.6379 211.364 45.4379 218.764 51.8379ZM170.764 61.0379C167.564 62.8379 164.564 63.6379 163.964 63.0379C163.364 62.4379 164.964 61.0379 167.564 60.0379C174.964 57.0379 176.964 57.6379 170.764 61.0379ZM266.964 65.2379C266.764 67.2379 268.164 71.2379 269.964 74.0379C272.164 77.2379 272.964 80.6379 271.964 83.0379C270.164 87.6379 263.364 95.2379 263.364 92.6379C263.364 91.6379 262.164 93.0379 260.764 95.8379C259.364 98.6379 256.564 101.038 254.564 101.438C252.164 102.038 254.364 99.0379 260.164 93.4379C269.964 84.0379 271.764 77.8379 266.364 71.8379C264.564 69.8379 263.764 66.8379 264.564 65.0379C266.164 60.8379 267.764 60.8379 266.964 65.2379ZM182.964 66.2379C185.964 69.2379 186.164 71.8379 183.364 71.8379C182.364 71.8379 181.364 70.4379 181.364 68.6379C181.364 66.2379 179.964 65.6379 176.364 66.2379C173.564 66.8379 171.364 66.4379 171.364 65.6379C171.364 63.0379 180.164 63.4379 182.964 66.2379ZM246.964 67.0379C251.164 70.0379 252.964 78.6379 249.764 80.6379C248.764 81.2379 248.564 79.0379 248.964 75.6379C249.764 70.6379 248.964 69.4379 243.164 66.8379C239.364 65.2379 237.764 64.0379 239.364 63.8379C241.164 63.8379 244.564 65.2379 246.964 67.0379ZM207.364 80.6379C207.364 85.8379 206.164 84.2379 204.564 76.8379C203.564 72.4379 203.764 71.6379 205.364 73.8379C206.364 75.4379 207.364 78.6379 207.364 80.6379ZM243.364 81.6379C243.364 82.6379 241.764 85.0379 239.964 87.2379C237.964 89.2379 236.964 90.0379 237.964 89.0379C238.764 87.8379 239.364 85.4379 239.364 83.4379C239.364 81.4379 240.364 79.8379 241.364 79.8379C242.564 79.8379 243.364 80.6379 243.364 81.6379ZM265.364 84.8379C263.964 86.4379 262.164 87.8379 261.164 87.8379C260.164 87.8379 260.964 86.0379 262.764 83.8379C264.564 81.6379 266.564 80.4379 266.964 80.8379C267.564 81.4379 266.764 83.0379 265.364 84.8379ZM190.964 87.2379C188.964 87.6379 185.764 87.6379 183.964 87.2379C181.964 86.6379 183.564 86.2379 187.364 86.2379C191.164 86.2379 192.764 86.6379 190.964 87.2379ZM224.564 87.8379C227.564 89.0379 233.164 92.6379 236.764 96.0379C242.964 101.238 243.164 101.838 238.964 100.838C234.564 99.6379 233.764 100.438 231.564 107.638C230.364 112.038 227.564 116.638 225.364 117.838C219.164 121.038 218.364 120.038 223.764 115.838C231.564 109.838 232.164 104.238 225.364 100.838C222.164 99.2379 217.164 97.8379 214.364 97.8379C211.364 97.8379 209.564 97.0379 210.364 95.8379C211.764 93.4379 220.564 95.2379 226.564 99.2379C230.164 101.438 231.164 101.438 233.164 99.2379C235.964 95.6379 233.164 93.0379 222.164 89.0379C217.964 87.4379 215.364 86.0379 216.764 86.0379C217.964 85.8379 221.564 86.8379 224.564 87.8379ZM202.364 95.8379C203.164 97.0379 201.364 97.8379 198.364 97.8379C195.564 97.8379 190.964 99.2379 188.364 101.038C185.564 102.838 183.364 103.438 183.364 102.238C183.364 101.238 186.764 98.8379 190.964 97.2379C199.964 93.4379 200.764 93.2379 202.364 95.8379ZM206.764 105.838C207.564 108.438 207.364 108.438 205.764 106.038C203.964 103.638 202.364 103.438 195.764 105.438C191.364 106.838 186.764 107.838 185.364 107.838C180.964 107.838 184.364 105.638 190.564 104.638C193.764 104.038 196.764 103.238 197.164 102.638C199.164 100.638 206.164 103.038 206.764 105.838Z" fill="#CADBA7"/>
<path d="M161.764 50.2379C158.964 53.0379 158.564 55.8379 161.164 55.8379C162.964 55.8379 165.964 49.8379 164.764 48.6379C164.364 48.2379 162.964 49.0379 161.764 50.2379Z" fill="#406B96"/>
<path d="M95.3643 13.8379C95.3643 15.0379 94.3643 15.4379 92.9643 14.6379C91.1643 13.6379 91.1643 14.2379 93.1643 16.4379C95.5643 19.4379 94.9643 20.6379 90.9643 20.0379C89.9643 20.0379 89.3643 20.6379 89.3643 21.8379C89.3643 24.8379 92.5643 24.2379 95.5643 20.6379C97.9643 17.6379 98.3643 17.8379 99.5643 22.0379L100.964 26.8379L101.164 22.2379C101.364 19.6379 99.9643 16.2379 98.3643 14.6379C96.5643 12.8379 95.3643 12.4379 95.3643 13.8379Z" fill="#F2D522"/>
<path d="M60.7645 18.0372C61.5645 21.0372 62.3645 21.4372 63.5645 19.6372C65.1645 16.8372 64.1645 13.8372 61.3645 13.8372C60.5645 13.8372 60.1645 15.6372 60.7645 18.0372Z" fill="#F2D522"/>
<path d="M70.1641 22.2374C69.3641 23.6374 69.5641 23.8374 70.9641 23.0374C72.3641 22.2374 73.3641 22.6374 73.3641 23.6374C73.3641 24.8374 72.3641 25.8374 70.9641 25.8374C69.7641 25.8374 69.3641 26.4374 69.9641 27.0374C71.7641 28.8374 77.5641 23.8374 76.1641 21.6374C74.7641 19.2374 71.9641 19.4374 70.1641 22.2374Z" fill="#F2D522"/>
<path d="M19.1643 29.2379L12.3643 36.8379L19.9643 30.0379C23.9643 26.2379 27.3643 22.8379 27.3643 22.4379C27.3643 20.8379 25.7643 22.4379 19.1643 29.2379Z" fill="#F2D522"/>
<path d="M55.565 26.0371C55.365 27.8371 56.765 30.0371 58.565 30.6371C60.165 31.2371 61.165 31.0371 60.365 30.0371C59.765 29.0371 59.965 27.8371 60.765 27.2371C61.765 26.8371 61.365 26.8371 59.965 27.0371C58.765 27.4371 57.165 26.6371 56.565 25.2371C56.165 23.8371 55.565 24.2371 55.565 26.0371Z" fill="#F2D522"/>
<path d="M26.5646 34.8371C25.5646 37.0371 24.5646 40.4371 24.3646 42.4371C23.9646 45.6371 24.1646 45.8371 26.7646 43.2371C28.3646 41.6371 29.3646 38.2371 28.9646 35.6371C28.3646 31.0371 28.1646 31.0371 26.5646 34.8371Z" fill="#F2D522"/>
<path d="M98.5642 34.0371C99.3642 35.4371 97.7642 38.0371 95.1642 40.2371C92.5642 42.4371 91.3642 43.6371 92.7642 43.0371C93.9642 42.4371 95.3642 42.6371 95.7642 43.6371C95.9642 44.6371 97.9642 42.4371 99.7642 38.6371C102.764 32.6371 102.964 31.8371 100.164 31.8371C98.3642 31.8371 97.7642 32.8371 98.5642 34.0371Z" fill="#F2D522"/>
<path d="M51.3643 37.8377C51.1643 39.4377 51.1643 42.2377 51.3643 43.6377C51.5643 46.2377 51.1643 46.2377 48.5643 44.0377C45.7643 41.8377 45.3643 41.8377 45.3643 44.6377C45.3643 46.6377 46.3643 47.4377 47.3643 46.8377C48.5643 46.2377 49.3643 46.8377 49.3643 48.2377C49.3643 49.8377 50.3643 49.4377 51.5643 47.2377C52.7643 45.2377 53.1643 41.6377 52.7643 39.2377C52.3643 36.8377 51.7643 36.2377 51.3643 37.8377Z" fill="#F2D522"/>
<path d="M102.964 39.8378C100.964 41.6378 99.3643 44.0378 99.3643 45.0378C99.3643 46.0378 100.164 45.6378 101.164 44.0378C102.164 42.4378 105.564 41.2378 108.964 41.0378C115.364 40.8378 115.764 38.8378 109.964 37.4378C107.964 36.8378 104.764 38.0378 102.964 39.8378Z" fill="#F2D522"/>
<path d="M122.765 39.0377C120.365 41.4377 123.565 43.8377 128.965 43.6377C133.165 43.4377 133.565 43.2377 130.365 42.4377C128.165 41.8377 125.765 40.6377 125.165 39.6377C124.565 38.6377 123.565 38.4377 122.765 39.0377Z" fill="#F2D522"/>
<path d="M35.3643 49.8375C35.3643 52.0375 36.3643 54.2375 37.3643 54.8375C38.5643 55.4375 39.3643 54.8375 39.3643 53.0375C39.3643 51.4375 40.5643 49.8375 41.7643 49.4375C43.1643 48.8375 42.1643 48.0375 39.7643 47.4375C36.3643 46.4375 35.3643 47.0375 35.3643 49.8375Z" fill="#F2D522"/>
<path d="M84.5641 49.0375C81.5641 50.8375 76.3641 52.4375 73.1641 52.6375C69.9641 52.8375 66.9641 53.6375 66.3641 54.2375C64.7641 55.8375 82.3641 53.6375 87.3641 51.8375C87.9641 51.6375 88.9641 51.4375 89.5641 51.4375C90.1641 51.6375 90.7641 50.2375 90.7641 48.6375C90.7641 47.0375 90.5641 45.8375 90.5641 45.8375C90.3641 46.0375 87.7641 47.4375 84.5641 49.0375Z" fill="#F2D522"/>
<path d="M46.7647 53.2376C46.3647 54.2376 46.1647 56.2376 46.3647 57.8376C46.3647 59.4376 45.1647 61.4376 43.3647 62.2376C41.1647 63.4376 41.3647 63.6376 44.3647 63.2376C47.1647 62.8376 48.3647 61.4376 48.1647 58.2376C47.9647 55.0376 48.7647 53.8376 50.7647 54.6376C52.3647 55.2376 52.9647 54.8376 52.3647 53.8376C50.9647 51.4376 47.9647 51.2376 46.7647 53.2376Z" fill="#F2D522"/>
<path d="M81.9648 59.8376C81.9648 64.0376 82.5648 64.8376 84.3648 63.0376C85.7648 61.8376 86.3648 59.6376 85.7648 58.0376C84.9648 56.0376 85.5648 55.8376 88.7648 57.4376C90.9648 58.6376 93.7648 58.8376 95.3648 57.8376C97.7648 56.4376 97.3648 56.0376 94.3648 56.0376C92.1648 56.2376 88.5648 55.8376 86.1648 55.2376C82.7648 54.4376 81.9648 55.0376 81.9648 59.8376Z" fill="#F2D522"/>
<path d="M73.3643 57.8376C70.5643 58.6376 69.3643 59.6376 70.3643 59.6376C71.5643 59.8376 70.9643 60.6376 69.3643 61.8376C67.5643 62.8376 65.5643 62.8376 63.9643 61.4376C62.1643 60.0376 61.3643 60.0376 61.3643 61.6376C61.3643 62.8376 61.9643 63.8376 62.9643 64.0376C63.7643 64.0376 66.3643 64.4376 68.7643 64.6376C71.3643 65.0376 72.9643 64.8376 72.3643 64.2376C71.9643 63.8376 73.5643 61.6376 75.9643 59.6376C80.7643 55.6376 80.5643 55.4376 73.3643 57.8376Z" fill="#F2D522"/>
<path d="M107.165 62.0379C105.165 63.2379 105.765 63.8379 109.965 63.8379C115.765 63.8379 116.965 62.8379 112.765 61.2379C111.165 60.6379 108.765 61.0379 107.165 62.0379Z" fill="#F2D522"/>
<path d="M122.964 63.0375C122.164 66.0375 122.964 67.0375 126.164 67.4375C128.364 67.4375 129.364 67.0375 128.164 66.2375C126.964 65.4375 125.564 63.4375 124.964 61.8375C124.364 59.6375 123.764 60.0375 122.964 63.0375Z" fill="#F2D522"/>
<path d="M112.564 67.4371C112.164 68.2371 112.564 70.2371 113.764 71.8371C115.364 74.2371 115.564 74.0371 114.564 71.0371C113.564 68.2371 114.164 67.6371 116.364 68.6371C118.164 69.2371 118.964 69.0371 118.364 67.8371C116.964 65.4371 113.964 65.2371 112.564 67.4371Z" fill="#F2D522"/>
<path d="M19.5648 72.2379C17.5648 77.8379 18.5648 79.8379 22.9648 79.6379C25.9648 79.4379 25.9648 79.2379 22.9648 78.4379C20.1648 77.8379 19.7648 76.8379 21.3648 73.8379C22.7648 71.4379 24.7648 70.4379 26.9648 71.0379C29.7648 72.0379 29.9648 71.8379 27.3648 70.0379C22.9648 66.8379 21.3648 67.2379 19.5648 72.2379Z" fill="#F2D522"/>
<path d="M33.7643 70.4373C35.7643 72.0373 36.7643 73.8373 35.9643 74.6373C35.1643 75.4373 36.1643 75.4373 37.9643 74.6373C41.9643 73.2373 41.9643 73.2373 35.3643 70.0373C30.9643 67.8373 30.7643 68.0373 33.7643 70.4373Z" fill="#F2D522"/>
<path d="M66.3649 71.8379C65.9649 72.4379 68.3649 73.0379 71.5649 73.0379C74.7649 73.2379 77.3649 72.8379 77.3649 72.0379C77.3649 70.4379 67.3649 70.2379 66.3649 71.8379Z" fill="#F2D522"/>
<path d="M90.5641 71.4373C89.1641 73.6373 90.1641 79.4373 92.3641 81.2373C93.1641 82.0373 93.3641 81.6373 92.5641 80.2373C91.7641 79.0373 91.9641 77.8373 93.1641 77.8373C94.1641 77.8373 95.5641 79.0373 95.9641 80.2373C96.7641 82.2373 97.1641 82.2373 97.1641 80.2373C97.3641 78.8373 95.9641 77.2373 94.3641 76.6373C92.7641 75.8373 91.3641 74.6373 91.3641 73.4373C91.3641 72.4373 92.3641 72.2373 93.7641 73.0373C95.1641 73.8373 95.3641 73.6373 94.5641 72.2373C92.9641 69.4373 91.9641 69.2373 90.5641 71.4373Z" fill="#F2D522"/>
<path d="M28.3641 76.0377C27.5641 77.2377 27.5641 78.6377 28.1641 79.2377C28.7641 79.8377 28.3641 82.2377 27.1641 84.6377C25.5641 88.0377 25.9641 87.8377 29.1641 83.8377C33.5641 78.4377 34.5641 73.8377 31.5641 73.8377C30.3641 73.8377 28.9641 74.8377 28.3641 76.0377Z" fill="#F2D522"/>
<path d="M42.1645 78.2375C41.3645 79.6375 41.3645 80.2375 42.1645 79.4375C42.9645 78.8375 45.9645 79.4375 48.9645 81.0375C54.9645 84.0375 55.9645 83.6375 54.1645 79.0375C52.7645 75.2375 44.1645 74.6375 42.1645 78.2375Z" fill="#F2D522"/>
<path d="M80.7642 87.2374C79.9642 88.4374 80.9642 90.0374 82.7642 90.6374C86.7642 92.2374 90.7642 88.8374 87.1642 86.8374C85.5642 85.8374 85.1642 86.0374 86.1642 87.4374C86.9642 88.8374 86.7642 89.8374 85.5642 89.8374C84.5642 89.8374 83.3642 88.8374 82.9642 87.4374C82.3642 85.8374 81.7642 85.6374 80.7642 87.2374Z" fill="#F2D522"/>
<path d="M8.56454 148.037C8.96454 148.837 12.3645 149.837 16.1645 150.237C19.9645 150.638 22.7645 150.438 22.1645 149.637C21.7645 148.837 18.3645 147.837 14.5645 147.438C10.7645 147.037 7.96454 147.237 8.56454 148.037Z" fill="#F2D522"/>
</svg>
