<svg width="1440" height="802" viewBox="0 0 1440 802" fill="none" xmlns="http://www.w3.org/2000/svg">
<path d="M239.608 408.588C227.05 410.064 213.53 414.821 203.27 421.382C192.85 427.998 181.788 439.315 174.894 450.36C169.764 458.616 164.581 471.027 162.122 480.978C159.504 491.476 158.863 497.982 159.023 512.69L159.183 525.812L165.329 525.976C177.032 526.304 185.529 523.351 196.003 515.314C198.247 513.619 200.064 512.033 200.064 511.815C200.064 511.596 199.102 509.518 197.98 507.222C188.895 489.124 196.644 470.043 218.393 456.866L222.829 454.187V450.25C222.775 445.603 223.684 443.908 227.371 442.049C230.684 440.354 239.234 439.042 247.09 439.042C256.442 439.097 260.984 440.463 267.183 445.166L269.855 447.243L274.13 446.423C281.718 445.056 285.619 446.423 289.306 451.781C291.658 455.226 294.597 461.787 296.307 467.637C296.895 469.715 297.536 471.41 297.643 471.41C297.75 471.41 298.338 470.426 298.925 469.223C301.651 463.81 306.407 460.475 310.468 461.24C313.354 461.842 317.148 465.723 319.446 470.59C320.515 472.777 321.37 475.018 321.37 475.456C321.37 476.713 322.171 476.549 325.805 474.526C332.164 471.082 337.401 464.958 341.463 456.21C343.173 452.492 343.279 451.945 342.638 450.688C341.623 448.719 332.485 439.37 327.996 435.761C304.002 416.352 267.931 405.253 239.608 408.588Z" fill="#5A233E"/>
<path d="M242.828 440.118C231.296 441.495 227.416 442.43 225.638 444.412C224.345 445.844 223.644 449.312 224.183 451.569L224.506 453L227.362 451.789C232.105 449.862 236.416 448.541 241.75 447.495C244.553 446.889 248.163 445.899 249.726 445.293C253.121 443.972 259.695 443.807 263.467 444.963C264.868 445.403 266 445.678 266 445.568C266 445.018 259.965 441.99 257.432 441.219C254.468 440.339 246.223 439.733 242.828 440.118Z" fill="#5A233E"/>
<path d="M256.955 447.037C259.667 447.556 262.483 448 263.213 448C264.36 448 264.308 447.852 262.691 446.963C261.648 446.37 258.936 446 256.433 446H252L256.955 447.037Z" fill="#5A233E"/>
<path d="M275.049 447.461C272.588 447.908 271.646 448.355 272.117 448.746C272.222 448.858 273.688 450.032 275.415 451.373C279.708 454.726 285.572 460.762 290.597 467.021C294.681 472.163 295.675 473.281 295.989 472.945C296.094 472.89 295.413 470.431 294.524 467.524C291.016 456.012 286.671 448.691 282.588 447.461C280.441 446.846 278.661 446.846 275.049 447.461Z" fill="#5A233E"/>
<path d="M244.707 449.766C241.498 452.158 235.669 458.31 232.514 462.582L230 466L232.781 463.38C236.043 460.304 241.605 457.114 246.044 455.747C248.451 454.949 250.376 454.835 254.066 455.063C260.644 455.519 265.939 457.342 273.854 461.956C274.763 462.468 275.886 462.867 276.368 462.867C277.116 462.867 277.17 462.582 276.688 460.703C275.779 457.171 272.945 452.044 271.019 450.449C269.469 449.196 268.613 448.968 265.351 448.911C263.265 448.854 258.291 448.627 254.334 448.399L247.114 448L244.707 449.766Z" fill="#5A233E"/>
<path d="M236.571 451.01C232.305 452.037 225.962 454.296 225.063 455.066C224.783 455.323 225.456 457.222 226.635 459.481C227.758 461.689 228.88 463.229 229.105 462.972C229.386 462.715 231.294 460.559 233.483 458.198C235.616 455.836 238.591 453.012 240.107 451.934C243.25 449.624 242.745 449.47 236.571 451.01Z" fill="#5A233E"/>
<path d="M342.728 457.21C338.742 465.74 332.547 472.63 325.921 475.966L322.419 477.715L322.85 480.231C323.066 481.652 323.281 485.48 323.281 488.815C323.228 495.103 322.419 497.892 319.726 500.9C318.703 502.048 318.703 502.102 320.103 507.734C321.127 511.781 322.312 514.788 324.359 518.342C325.867 521.022 328.184 525.232 329.476 527.638C333.57 535.238 338.634 543.276 343.267 549.51C347.684 555.47 355.064 564 355.818 564C356.68 564 360.182 546.667 361.313 536.66C362.229 528.567 362.229 506.149 361.313 497.291C359.697 481.269 355.818 469.677 348.007 457.484C346.445 455.023 345.045 453 344.883 453C344.775 453 343.806 454.859 342.728 457.21Z" fill="#5A233E"/>
<path d="M276.428 455.245C276.839 455.98 277.559 458.073 278.021 459.94C278.432 461.807 278.998 463.392 279.203 463.505C279.409 463.561 281.875 464.863 284.702 466.39C287.528 467.918 289.892 469.106 289.995 468.993C290.303 468.71 276.891 454 276.274 454C275.863 454 275.914 454.396 276.428 455.245Z" fill="#5A233E"/>
<path d="M220.064 457.561C213.406 461.358 205.417 468.621 201.742 474.178C195.138 484.138 194.179 495.968 199.132 505.927C201.636 510.824 201.529 510.769 202.807 508.568L203.926 506.587L201.849 502.296C197.748 493.822 197.268 487.604 200.304 481.331C203.926 473.848 212.341 469.556 221.289 470.547L224.538 470.877L226.296 468.126L228 465.32L226.136 461.248C225.071 458.937 224.218 456.846 224.218 456.516C224.218 455.58 223.047 455.911 220.064 457.561Z" fill="#5A233E"/>
<path d="M246.398 457.322C245.447 457.546 246.186 457.68 248.775 457.68C250.835 457.68 254.11 458.084 256.171 458.621C259.71 459.473 267 460.325 267 459.876C267 459.742 265.045 459.114 262.668 458.487C258.072 457.232 249.092 456.56 246.398 457.322Z" fill="#5A233E"/>
<path d="M239.388 459.705C237.719 460.68 235.082 462.743 233.468 464.233C230.939 466.641 230.723 467.042 231.208 468.245C231.746 469.564 231.907 469.449 234.867 465.494C236.804 462.858 238.957 460.737 240.733 459.648C244.446 457.413 243.316 457.47 239.388 459.705Z" fill="#5A233E"/>
<path d="M244.806 459.944C242.571 460.802 238 464.234 238 464.978C238 465.093 238.863 464.749 239.93 464.12C242.775 462.461 247.702 460.802 251.054 460.287L254 459.829L251.968 459.429C248.921 458.742 247.651 458.857 244.806 459.944Z" fill="#5A233E"/>
<path d="M253.369 461.542C245.545 462.296 235.793 466.552 234.292 469.837C233.488 471.669 234.399 473.608 236.329 474.093C237.186 474.308 240.723 475.816 244.259 477.432C249.564 479.802 251.225 480.341 253.69 480.341C258.406 480.341 263.764 481.742 268.587 484.165C271.213 485.512 273.249 486.212 273.517 485.943C274.481 484.973 276.786 475.655 276.893 472.315L277 468.868L271.106 466.228C264.461 463.212 258.674 460.896 258.084 461.004C257.87 461.057 255.78 461.273 253.369 461.542Z" fill="#5A233E"/>
<path d="M271.239 464.494C274.264 465.993 276.82 467.103 276.976 466.992C277.133 466.826 276.507 465.993 275.568 465.16C273.899 463.55 271.604 462.606 267.848 462.051C266.179 461.829 266.805 462.273 271.239 464.494Z" fill="#5A233E"/>
<path d="M306.283 463.855C304.233 464.891 301.132 468.758 299.713 472.136C298.031 475.895 298.872 476.548 307.229 477.692C311.54 478.292 318.531 477.965 319.845 477.148C320.738 476.548 317.585 469.412 315.167 466.579C312.118 462.929 309.595 462.167 306.283 463.855Z" fill="#5A233E"/>
<path d="M279 466.08C279 466.65 282.155 469.553 283.552 470.33C285.983 471.574 294 474.373 294 473.958C294 473.129 285.569 468.257 281.224 466.547C279.983 466.08 279 465.873 279 466.08Z" fill="#5A233E"/>
<path d="M228.532 470.05C227.684 471.65 227.862 472.368 228.979 471.816C229.873 471.43 230.32 469.885 229.739 469.168C229.426 468.781 229.069 469.057 228.532 470.05Z" fill="#5A233E"/>
<path d="M277.627 475.704C277.016 479.009 276.353 482.259 276.15 482.975C275.895 483.967 275.946 484.187 276.455 483.857C276.812 483.636 278.391 483.251 279.971 483.086L282.824 482.755L282.977 479.45C283.079 476.751 282.875 475.594 281.703 473.115C279.512 468.433 278.952 468.819 277.627 475.704Z" fill="#5A233E"/>
<path d="M213.072 472.688C203.291 475.47 198.294 483.871 200.526 493.799C201.377 497.454 204.194 504 204.992 504C205.204 504 206.161 502.582 207.118 500.836C211.955 492.054 221.099 476.071 222.215 474.379C222.8 473.507 223.119 472.688 222.959 472.47C222.215 471.761 215.889 471.87 213.072 472.688Z" fill="#5A233E"/>
<path d="M284.039 472.385C285.058 474.953 285.434 477.349 285.273 480.088L285.112 483.055L288.599 484.368C290.53 485.053 292.462 485.794 292.891 485.966C293.535 486.194 293.91 485.338 294.661 481.914C295.198 479.518 295.788 477.178 295.949 476.721C296.11 476.208 295.895 475.923 295.251 475.923C294.661 475.923 291.871 474.895 288.974 473.64C284.843 471.928 283.77 471.643 284.039 472.385Z" fill="#5A233E"/>
<path d="M226.229 474.399C225.029 477.039 224 479.679 224 479.978C224.057 480.426 228 473.95 228 473.452C228 472.506 226.8 473.153 226.229 474.399Z" fill="#5A233E"/>
<path d="M219.609 481.67C211.528 495.605 206 505.381 206 505.868C206 506.516 213.761 514.834 215.622 516.184C217.057 517.21 217.323 517.21 221.416 516.508C223.755 516.076 225.828 515.644 225.988 515.482C226.094 515.32 225.509 512.997 224.605 510.297C221.15 499.764 220.565 486.585 223.17 478.159C223.914 475.89 224.393 474 224.286 474C224.233 474 222.107 477.457 219.609 481.67Z" fill="#5A233E"/>
<path d="M228.35 476.269C225.521 481.142 224.33 485.637 224.081 492.46C223.883 498.038 223.982 499.283 225.124 503.615C226.761 509.843 228.548 514.662 229.342 514.987C229.789 515.15 229.938 513.796 229.938 509.68C229.938 502.695 231.03 496.846 233.263 492.243L235 488.669L233.71 486.558C231.923 483.579 230.93 480.168 230.93 476.864C230.93 473.236 230.186 473.074 228.35 476.269Z" fill="#5A233E"/>
<path d="M233 477.286C233 480.1 234.477 484.134 236.336 486.416C237.047 487.265 237.211 487.212 238.578 486.098L240 484.824L237.266 480.418C233.328 473.995 233 473.73 233 477.286Z" fill="#5A233E"/>
<path d="M236.057 476.469C236.172 476.704 237.148 478.582 238.239 480.577C239.617 483.101 240.536 484.157 241.11 483.981C244.67 482.866 248 481.516 248 481.223C248 480.93 236.976 476 236.23 476C236 476 235.943 476.176 236.057 476.469Z" fill="#5A233E"/>
<path d="M296.116 481.114C295.618 483.131 295.119 485.202 295.019 485.693C294.869 486.184 295.618 487.22 296.765 488.255C297.862 489.237 298.86 490 298.96 490C299.259 490 297.812 478.988 297.363 478.115C297.114 477.625 296.665 478.715 296.116 481.114Z" fill="#5A233E"/>
<path d="M299.663 479.199C300.93 480.671 310.433 495.336 313.072 499.915C314.92 503.186 315.5 503.622 315.976 502.313C316.345 501.278 312.439 493.537 309.43 489.23C306.685 485.414 299.927 478 299.136 478C298.819 478 299.083 478.545 299.663 479.199Z" fill="#5A233E"/>
<path d="M305.305 481.48C309.491 485.899 313.402 491.423 316.045 496.616C318.249 501.09 318.524 501.09 320.727 496.837C321.994 494.406 322.435 485.623 321.498 481.204L320.837 478.055L318.028 478.442C314.338 478.994 308.775 478.994 304.974 478.442L302 478L305.305 481.48Z" fill="#5A233E"/>
<path d="M261.679 486.446L269.802 491L270.56 489.52C271.21 488.154 271.156 487.926 270.289 487.186C268.34 485.592 263.628 483.599 259.946 482.802C252.96 481.208 253.231 481.778 261.679 486.446Z" fill="#5A233E"/>
<path d="M300 483.156C300 483.583 300.215 485.88 300.538 488.283C300.915 491.915 301.346 493.09 302.854 495.28C303.823 496.722 305.385 499.499 306.246 501.475C307.431 504.145 308.023 505 308.885 505C310.177 505 314 503.985 314 503.611C314 503.291 303.069 486.414 301.4 484.224C300.646 483.209 300 482.729 300 483.156Z" fill="#5A233E"/>
<path d="M245.212 484.003C243.765 484.601 242.372 485.253 242.051 485.579C241.783 485.851 242.587 487.916 244.194 490.796C246.712 495.523 246.819 495.578 250.034 496.828C254.213 498.403 260.749 499.327 264.553 498.893C267.714 498.512 267.982 498.186 268.679 494.274L269 492.372L260.267 487.644C250.677 482.481 249.659 482.21 245.212 484.003Z" fill="#5A233E"/>
<path d="M276.781 485.893C274.537 487.136 274.439 488.055 276.342 490.162C277.269 491.189 278.098 492 278.244 492C278.586 492 282 485.947 282 485.407C282 484.65 278.39 485.028 276.781 485.893Z" fill="#5A233E"/>
<path d="M283.156 487.067C282.664 488.24 281.516 490.194 280.641 491.423L279 493.602L280.422 495.668C281.516 497.176 282.938 498.182 285.891 499.466C288.133 500.472 290.047 501.142 290.211 500.974C290.375 500.807 291.086 497.902 291.742 494.495L293 488.295L291.797 487.513C290.539 486.676 285.781 485 284.742 485C284.359 485 283.648 485.95 283.156 487.067Z" fill="#5A233E"/>
<path d="M239.241 487.92L238 488.942L239.397 490.503C240.172 491.31 241.517 492.44 242.397 493.031L244 494L242.345 490.556C241.466 488.727 240.69 487.113 240.586 487.005C240.534 486.951 239.914 487.328 239.241 487.92Z" fill="#5A233E"/>
<path d="M294 489.234C294 489.29 293.55 491.997 293 495.268C292.45 498.54 292 501.36 292 501.585C292 502.093 298.05 504.349 298.55 503.954C298.8 503.785 299 501.303 299 498.427V493.125L297 491.095C295.35 489.403 294 488.557 294 489.234Z" fill="#5A233E"/>
<path d="M235.723 490.608C234.44 492.254 232.878 495.983 232.041 499.658C231.204 503.277 230.646 514.356 231.26 514.959C231.427 515.069 233.882 514.959 236.783 514.63C239.684 514.356 243.589 514.081 245.541 514.081H249V510.352C249 506.842 247.773 501.632 246.099 497.793C245.597 496.641 244.091 495.27 242.027 493.899C240.186 492.747 238.345 491.376 237.899 490.883C237.006 489.786 236.504 489.731 235.723 490.608Z" fill="#5A233E"/>
<path d="M273.287 491.157C272.734 492.187 272.918 492.574 274.392 493.347C276.97 494.764 277.891 493.734 275.988 491.608C274.146 489.546 274.146 489.546 273.287 491.157Z" fill="#5A233E"/>
<path d="M271.462 495.503C270.608 497.336 270.852 497.463 272.926 496.009C274.085 495.25 274.268 494.871 273.658 494.491C272.438 493.67 272.194 493.796 271.462 495.503Z" fill="#5A233E"/>
<path d="M273.451 497.704C271.307 498.914 270.288 499.793 270.074 500.783C269.645 502.707 271.146 508.039 273.13 511.832C274.577 514.636 275.006 515.076 276.722 515.405C277.794 515.57 280.314 516.065 282.352 516.505C284.389 516.89 286.266 517.11 286.48 516.945C287.928 516.065 286.212 508.534 283.049 501.937C281.601 499.078 280.904 498.254 278.92 497.209L276.508 496L273.451 497.704Z" fill="#5A233E"/>
<path d="M301.448 498.313C301.448 499.848 301.292 501.876 301.135 502.753C300.822 504.397 300.875 504.452 303.273 504.781C304.628 505 305.827 505.055 305.983 504.945C306.244 504.616 303.377 498.039 302.282 496.614C301.5 495.572 301.5 495.682 301.448 498.313Z" fill="#5A233E"/>
<path d="M248.128 497.851C249.867 503.763 250.605 507.31 250.605 510.295V513.786L256.825 513.955C260.199 514.067 263.203 513.955 263.414 513.786C263.836 513.448 267.947 501.06 268 500.047C268 499.709 266.84 499.596 264.995 499.765C259.672 500.272 253.715 499.315 248.813 497.175C247.97 496.837 247.864 496.95 248.128 497.851Z" fill="#5A233E"/>
<path d="M283.946 501.729C284.537 502.619 285.661 505.133 286.548 507.229L288.085 511L289.15 507.071C289.741 504.871 290.096 502.986 289.977 502.881C289.859 502.724 288.203 502.043 286.37 501.31L283 500L283.946 501.729Z" fill="#5A233E"/>
<path d="M291.316 504.563C291.105 505.489 290.526 507.979 290 510.236C289.421 512.436 289 515.215 289 516.373C289 518.167 289.211 518.572 290.316 518.862C292.105 519.383 293.474 518.457 295.316 515.62C296.526 513.825 299 507.052 299 505.605C299 505.373 292.632 503 292.053 503C291.842 503 291.526 503.695 291.316 504.563Z" fill="#5A233E"/>
<path d="M317 504.286C317 504.8 317.867 508 317.982 508C318.04 508 317.953 507.086 317.78 506C317.607 504.914 317.376 504 317.231 504C317.116 504 317 504.114 317 504.286Z" fill="#5A233E"/>
<path d="M266.375 509.715C265.552 512.262 264.949 514.429 265.003 514.484C265.113 514.538 266.705 514.755 268.625 514.917C272.247 515.188 272.686 514.863 271.204 512.912C270.765 512.37 269.887 510.311 269.284 508.468C268.625 506.572 268.022 505 267.967 505C267.857 505 267.144 507.113 266.375 509.715Z" fill="#5A233E"/>
<path d="M311.238 505.688C308.598 506.296 307.812 506.738 308.036 507.346C308.261 507.788 308.767 510.552 309.216 513.427C310.058 519.231 310.171 525.976 309.497 531.946C309.216 534.047 309.104 535.871 309.16 535.981C309.665 536.59 316.742 522.106 318.989 515.859L320 513.04L317.641 509.06C316.349 506.904 315.17 505.079 315.001 505.024C314.889 504.914 313.204 505.19 311.238 505.688Z" fill="#5A233E"/>
<path d="M299.831 508.129C299.428 510.967 297.468 515.333 295.558 517.68L294 519.645L296.865 521.173C300.987 523.466 304.455 527.068 306.114 530.834L307.471 534L307.823 529.743C308.275 524.667 307.823 515.333 306.918 510.639C306.516 508.729 306.164 507.092 306.013 506.982C305.913 506.873 304.555 506.6 302.997 506.382L300.182 506L299.831 508.129Z" fill="#5A233E"/>
<path d="M203.671 509.56C202.701 511.216 202.701 511.216 204.21 512.765C205.773 514.368 212.51 518 213.965 518C214.612 518 206.043 508.492 204.911 508.011C204.749 507.904 204.21 508.598 203.671 509.56Z" fill="#5A233E"/>
<path d="M200.827 515.575C196.24 526.708 197.265 538.277 203.687 548.537C206.493 553.066 213.671 559.942 218.906 563.162C221.389 564.745 223.601 566 223.817 566C224.627 566 222.576 560.706 221.011 558.742C219.068 556.341 216.586 551.32 215.722 548.264C214.805 544.826 215.02 539.259 216.154 537.076L217.179 535.221L212.754 531.728C210.379 529.764 207.087 527.362 205.576 526.326C202.608 524.415 201.906 522.833 203.687 522.069C204.173 521.851 206.062 521.087 207.843 520.377L211.081 519.176L209.462 518.522C208.598 518.194 206.763 517.103 205.414 516.12C201.582 513.392 201.744 513.392 200.827 515.575Z" fill="#5A233E"/>
<path d="M194.962 517.463C190.787 520.627 184.257 523.956 179.225 525.538C174.461 527.011 166.7 527.884 162.311 527.448L158.778 527.12L158.082 529.467C157.708 530.776 156.263 533.941 154.817 536.505C153.426 539.07 151.766 542.18 151.178 543.435L150 545.672L156.048 549.383C167.771 556.585 178.476 564.224 193.356 576.01C214.606 592.925 222.528 598.163 231.628 601.491C236.177 603.128 244.848 603.51 249.559 602.255C252.77 601.382 258.872 598.709 259.943 597.617C260.211 597.345 259.515 596.362 258.337 595.38C254.804 592.379 250.683 587.741 247.097 582.885L243.671 578.192L240.138 578.083C233.447 577.92 229.861 575.955 226.543 570.772C225.151 568.535 223.973 567.498 221.993 566.516C216.961 564.006 211.662 559.968 207.112 555.057C199.94 547.418 196.033 538.252 196.033 529.139C196.033 525.756 197.157 519.372 198.227 516.699C198.602 515.88 198.762 515.116 198.655 515.007C198.548 514.898 196.889 516.044 194.962 517.463Z" fill="#5A233E"/>
<path d="M249.787 516.21C249.42 516.925 248.79 518.135 248.476 518.905C248.161 519.73 247.165 521.215 246.221 522.315C245.33 523.36 244.805 524.405 245.068 524.57C245.54 524.845 256.97 526 259.749 526C261.27 526 261.427 525.835 261.427 524.185C261.427 523.25 261.794 520.94 262.213 519.125C262.633 517.31 262.948 515.66 263 515.385C263 515.165 260.221 515 256.76 515C250.888 515 250.521 515.055 249.787 516.21Z" fill="#5A233E"/>
<path d="M238.194 516.38C232.361 516.976 232 517.085 232 518.495C232 519.255 232.361 520.557 232.774 521.371C233.445 522.781 233.91 522.998 237.677 523.595C241.29 524.192 241.961 524.137 243.045 523.378C244.594 522.347 246.71 519.472 247.432 517.465L248 516L243.974 516.108C241.806 516.108 239.174 516.271 238.194 516.38Z" fill="#5A233E"/>
<path d="M264.61 517.163C263.656 521.239 262.861 526.14 263.02 526.471C263.179 526.691 264.875 527.021 266.835 527.242C268.795 527.462 272.504 528.013 275.1 528.453C280.397 529.445 280.45 529.445 282.57 525.369L284 522.67L282.517 522.285C280.238 521.734 278.278 520.523 275.947 518.375C273.987 516.557 273.616 516.392 269.431 516.172C265.034 515.841 264.928 515.896 264.61 517.163Z" fill="#5A233E"/>
<path d="M277.325 517.751C278.273 518.948 282.227 521 283.598 521C284.23 521 284.81 520.544 284.968 519.86C285.232 518.663 283.914 518.036 279.011 517.239C276.85 516.84 276.692 516.897 277.325 517.751Z" fill="#5A233E"/>
<path d="M222.176 518.669L219 519.235L220.412 520.058C221.874 520.933 228.478 522.373 228.932 521.91C229.436 521.447 227.016 517.949 226.209 518.001C225.705 518.052 223.941 518.361 222.176 518.669Z" fill="#5A233E"/>
<path d="M318.705 520.558C317.4 524.205 312.39 534.601 310.302 537.976C309.362 539.554 308.162 542.494 307.744 544.508C306.962 548.1 304.195 554.033 301.116 558.659C300.281 559.966 299.811 561 300.072 561C300.281 561 301.638 560.238 303.099 559.313C312.964 552.89 319.018 540.153 319.853 524.096C320.01 520.776 320.062 518 319.905 518C319.749 518 319.227 519.143 318.705 520.558Z" fill="#5A233E"/>
<path d="M321.424 523.434C320.943 531.454 319.071 539.039 315.917 545.641C312.602 552.461 307.042 558.409 301.321 561.082C298.113 562.61 297.044 563.483 294.05 567.193C287.634 575.16 270.739 591.856 264.911 596.003C264.269 596.439 263.842 597.094 264.056 597.367C264.697 598.513 272.824 602.005 277.689 603.314C291.751 606.97 314.099 604.624 338.693 596.821C342.65 595.566 342.703 595.512 344.414 592.292C346.873 587.655 351.151 577.397 353.236 571.176L355 565.884L350.937 561.628C341.527 551.697 333.4 539.421 322.279 518.196C321.905 517.432 321.638 518.85 321.424 523.434Z" fill="#5A233E"/>
<path d="M210.105 520.747C203.875 522.412 203.821 522.52 207.396 524.992C209.076 526.174 212.109 528.484 214.168 530.096C218.826 533.75 220.126 533.965 218.176 530.687C216.605 527.947 216.551 527.625 217.58 527.625C218.014 527.625 218.935 528.592 219.585 529.774C220.614 531.547 220.993 531.87 221.914 531.547C222.564 531.278 225.056 531.117 227.548 531.117C232.369 531.117 232.369 531.171 231.664 527.786C231.394 526.442 230.96 526.013 229.118 525.475C227.873 525.099 225.652 524.186 224.135 523.433C222.672 522.681 219.693 521.553 217.58 520.908C213.788 519.726 213.734 519.726 210.105 520.747Z" fill="#5A233E"/>
<path d="M290.24 521.543C289.424 521.924 288.88 523.067 288.282 525.678C287.847 527.692 287.303 529.759 287.085 530.249C286.759 530.956 287.303 531.5 289.859 532.806C293.558 534.656 297.202 538.247 298.453 541.131C298.888 542.274 299.269 544.722 299.269 546.572L299.323 550L301.608 547.497C306.122 542.6 307.101 540.696 306.992 537.268C306.775 531.283 302.532 525.678 295.842 522.359C292.579 520.782 291.98 520.673 290.24 521.543Z" fill="#5A233E"/>
<path d="M283.705 525.72C282.677 527.782 281.906 529.509 282.009 529.565C282.112 529.677 282.832 529.844 283.654 529.955C285.093 530.122 285.248 529.955 286.07 527.057C286.584 525.385 286.995 523.546 286.995 522.989C287.098 520.927 285.505 522.209 283.705 525.72Z" fill="#5A233E"/>
<path d="M228.631 524.5C229.268 524.778 230.195 525 230.658 525C231.179 525 231.121 524.778 230.369 524.5C229.732 524.222 228.805 524 228.342 524C227.821 524 227.879 524.222 228.631 524.5Z" fill="#5A233E"/>
<path d="M240.609 526.263C240.021 526.543 238.843 526.767 237.933 526.823C236.381 526.879 236.435 526.991 240.663 531.25C246.175 536.797 251.902 540.047 257.04 540.608L260.572 541L260.786 534.612C260.893 531.082 261 528.168 261 528.168C260.946 528.112 256.986 527.72 252.116 527.215C247.246 526.767 242.911 526.263 242.482 526.095C242.054 525.926 241.198 525.982 240.609 526.263Z" fill="#5A233E"/>
<path d="M233.133 528.883C233.35 530.175 233.674 531.364 233.89 531.571C234.053 531.726 235.512 532.398 237.08 532.966L240 534L236.864 530.796C235.134 529.038 233.512 527.333 233.242 527.074C232.971 526.764 232.917 527.436 233.133 528.883Z" fill="#5A233E"/>
<path d="M262.327 530.626C262.163 531.518 262 534.037 262 536.135C262 540.7 262.109 540.752 267.721 538.706C271.644 537.29 275.022 535.191 277.474 532.778L279 531.151L276.929 530.626C274.26 529.997 266.849 529 264.506 529C262.926 529 262.654 529.21 262.327 530.626Z" fill="#5A233E"/>
<path d="M277.404 534.127C274.246 537.303 267.717 541.102 265.416 541.102C264.827 541.102 264.185 541.385 264.024 541.669C263.596 542.406 268.895 541.839 272.855 540.705C276.708 539.627 279.705 537.756 282.114 534.921C284.415 532.2 284.522 531.689 282.916 531.236C280.936 530.725 280.776 530.782 277.404 534.127Z" fill="#5A233E"/>
<path d="M221.994 533.212C221.442 533.317 221 533.529 221 533.582C221 534.428 224.093 538.764 225.143 539.398C226.414 540.192 226.69 540.192 228.181 539.451C229.065 539.028 230.28 538.658 230.943 538.658C231.993 538.658 232.103 538.394 231.938 535.855L231.772 533.106L227.353 533C224.922 533 222.491 533.053 221.994 533.212Z" fill="#5A233E"/>
<path d="M282.94 535.753C281.031 538.023 279.229 539.407 276.419 540.791C272.973 542.508 271.86 542.784 267.248 543.006L262 543.283L262.318 546.383C262.689 550.037 263.325 550.702 269.687 554.522C275.147 557.789 279.441 559.56 283.523 560.391L286.757 561L289.248 559.007C293.383 555.685 295.928 553.138 296.458 551.643C297.359 549.207 297.094 543.283 295.981 541.013C294.814 538.687 292.27 536.085 289.566 534.424C286.173 532.32 285.802 532.376 282.94 535.753Z" fill="#5A233E"/>
<path d="M234.032 536.128L234.242 538.201L237.544 538.583C239.326 538.746 242.208 539.401 243.833 540.001C247.816 541.42 247.921 541.42 244.829 539.401C241.946 537.437 235.238 534 234.399 534C234.085 534 233.928 534.873 234.032 536.128Z" fill="#5A233E"/>
<path d="M217.83 537.364C216.045 540.418 217.251 548.545 220.387 554.436L221.737 557L222.075 552.255C222.22 549.527 222.75 546.582 223.329 545.164C224.198 542.873 224.198 542.655 223.474 541.073C222.847 539.655 219.422 536 218.795 536C218.698 536 218.264 536.6 217.83 537.364Z" fill="#5A233E"/>
<path d="M230.091 540.301C228.95 540.602 228 541.024 228 541.325C228 541.566 229.077 542.53 230.408 543.434L232.752 545L232.942 542.831C233.195 540.06 232.688 539.578 230.091 540.301Z" fill="#5A233E"/>
<path d="M234 543.216V546.431L237.918 548.993C246.936 554.933 258.907 560.874 259.873 559.893C260.141 559.621 260.517 557.55 260.678 555.26L261 551.173L258.638 549.647C254.559 547.031 246.614 542.943 243.447 541.799C241.783 541.254 238.992 540.6 237.221 540.382L234 540V543.216Z" fill="#5A233E"/>
<path d="M254.711 544.399C261.044 549.021 261.41 549.077 260.782 545.235C260.468 543.62 260.154 543.341 258.479 543.007C257.433 542.784 254.921 542.005 252.932 541.281C250.943 540.613 249.164 540 249.007 540C248.85 540 251.414 542.005 254.711 544.399Z" fill="#5A233E"/>
<path d="M227 543.058C227 543.496 232.182 553.442 232.727 553.988C232.891 554.152 233 552.567 233 550.491L232.945 546.72L230 544.643C228.364 543.496 227 542.785 227 543.058Z" fill="#5A233E"/>
<path d="M224.921 546.453C224.605 547.314 224.185 550.167 224.08 552.912C223.765 558.617 224.29 560.016 227.337 561.523C229.439 562.545 230.437 562.007 231.646 559.101C232.329 557.379 232.276 557.163 229.176 551.136C227.39 547.745 225.866 545 225.709 545C225.604 545 225.236 545.646 224.921 546.453Z" fill="#5A233E"/>
<path d="M303.855 547.262C302.785 548.554 300.814 550.869 299.406 552.377C295.296 556.954 293.663 559 294.057 559C295.352 559 303.911 551.785 303.911 550.708C303.911 550.546 304.418 549.2 305.037 547.692C305.657 546.238 306.051 545 305.995 545C305.882 545 304.925 546.023 303.855 547.262Z" fill="#5A233E"/>
<path d="M145.119 557.645C142.716 562.984 139.779 569.251 138.658 571.594C135.934 577.097 135.934 578.895 138.604 581.892C140.633 584.235 146.561 587.505 149.818 588.104C151.1 588.376 151.741 588.867 152.168 589.902C152.649 591.264 152.489 596.114 151.741 600.364C151.367 602.598 152.382 605.104 154.625 607.557C155.853 608.864 155.96 609.246 155.372 610.117C154.144 612.134 154.625 616.002 156.6 620.47C158.95 625.756 159.004 628.099 156.867 632.73C153.824 639.324 154.945 646.353 159.751 651.257C163.81 655.398 167.067 656.27 174.49 655.398C187.627 653.872 192.219 653.6 199.055 653.872C203.006 654.036 207.599 654.472 209.201 654.798C213.633 655.725 220.522 658.068 222.124 659.267C223.886 660.52 224.687 663.135 224.687 667.603C224.687 672.834 224.153 674.85 222.338 676.703C218.92 680.245 206.691 684.876 187.573 689.944C183.461 691.034 179.029 692.287 177.694 692.668C176.359 693.05 171.82 694.303 167.548 695.393C163.276 696.483 155.212 698.826 149.605 700.624C131.342 706.345 121.355 711.14 116.176 716.807C109.02 724.653 104 745.25 104 767.046C104 784.7 107.097 795.435 113.505 800.012L115.855 801.646L168.242 801.81C235.688 802.028 444.422 802.234 448 801.362C450.189 800.817 452.017 795.653 453.085 791.566C454.314 786.771 454.314 772.931 453.032 764.485C449.721 742.635 442.352 724.435 432.846 714.9C428.788 710.813 425.423 708.797 405.985 698.826C397.761 694.63 388.096 689.453 384.465 687.437C380.887 685.367 377.682 683.678 377.415 683.678C377.202 683.678 376.882 683.46 376.775 683.242C376.721 682.969 374.799 681.607 372.609 680.136C365.667 675.613 358.565 669.728 353.225 664.116C348.365 658.994 342.705 651.148 342.705 649.568C342.705 649.132 342.491 648.805 342.224 648.805C341.637 648.805 338.806 641.558 337.578 637.09C336.991 634.91 336.617 630.769 336.457 624.83C336.136 614.368 337.151 607.774 339.928 602.053C341.69 598.511 341.53 598.13 338.753 599.22C332.985 601.454 314.829 605.54 305.964 606.576C289.41 608.537 277.021 606.848 266.554 601.181L262.335 598.893L257.796 601.236C251.281 604.56 247.543 605.377 240.708 605.05C230.081 604.56 221.537 600.2 203.754 586.36C184.102 570.994 173.422 562.984 166.48 558.298C159.324 553.503 150.459 548 149.818 548C149.658 548 147.576 552.359 145.119 557.645Z" fill="#5A233E"/>
<path d="M234.365 552.309L234 556.673L237.385 563C239.208 566.545 241.031 569.818 241.396 570.309C241.917 571.073 243.271 571.345 247.802 571.618L253.583 572L255.094 570.145C256.604 568.236 259 563.382 259 562.127C259 561.745 258.01 561.036 256.812 560.545C252.75 558.909 243.688 553.945 239.156 550.945L234.677 548L234.365 552.309Z" fill="#5A233E"/>
<path d="M262.473 555.389C262.317 557.218 262.11 559.208 262.006 559.746C261.85 561.037 264.861 561.952 271.765 562.759C276.644 563.351 283.704 562.759 281.627 562.006C275.865 559.746 271.09 557.326 264.705 553.183L262.836 552L262.473 555.389Z" fill="#5A233E"/>
<path d="M297.667 558.783C297.025 559.235 295.247 560.14 293.766 560.844L291 562L293.667 561.698C296.828 561.346 296.828 561.346 298.161 559.436C299.396 557.677 299.297 557.626 297.667 558.783Z" fill="#5A233E"/>
<path d="M232.505 561.189C232.189 561.837 231.346 562.81 230.556 563.404C229.187 564.431 229.029 564.485 226.975 563.62C224.815 562.756 224.815 562.756 225.184 563.944C225.921 566.646 226.975 567.457 231.03 568.807C237.561 571.023 239.193 571.401 238.982 570.644C238.719 569.618 233.558 560 233.295 560C233.137 560 232.768 560.54 232.505 561.189Z" fill="#5A233E"/>
<path d="M259.15 567.058L257 572L260.093 571.651C264.078 571.128 270.159 569.384 274.616 567.407C280.435 564.849 280.435 564.616 274.773 564.5C271.784 564.442 268.062 563.86 265.598 563.163C263.291 562.523 261.404 562 261.404 562C261.351 562.058 260.355 564.267 259.15 567.058Z" fill="#5A233E"/>
<path d="M282.916 565.516C276.418 569.392 266.751 572.568 258.534 573.591C256.063 573.86 253.646 574.452 253.163 574.883C251.928 575.906 247.954 577.897 246.987 577.897C245.537 577.897 245.644 578.705 247.578 581.612C249.887 585.057 258.91 594.585 260.843 595.608C262.132 596.308 262.401 596.2 265.032 594.208C269.221 590.979 274.108 586.618 281.198 579.566C286.89 573.968 295 564.978 295 564.332C295 564.17 292.905 564.009 290.328 564.009C286.031 563.955 285.333 564.116 282.916 565.516Z" fill="#5A233E"/>
<path d="M228 569.218C228 570.438 231.161 573.75 233.518 574.971C236.143 576.307 243 577.586 243 576.714C243 576.482 242.518 575.494 241.929 574.448C241.125 573.053 240.321 572.414 238.821 572.123C237 571.775 230.411 569.799 228.75 569.101C228.321 568.927 228 568.985 228 569.218Z" fill="#5A233E"/>
<path d="M243.897 574.611C244.744 576.021 244.993 576.172 246.588 575.87C248.282 575.518 251.321 574.158 250.972 573.856C250.923 573.806 249.079 573.554 246.887 573.352L243 573L243.897 574.611Z" fill="#5A233E"/>
<path d="M152.5 548C13 478 107 754.5 -2 697M160.5 527C-80 372 444.5 217.5 -1 206.5M343.5 454C514 128.5 1277.5 421 1442.5 262.5M353.5 563C412 629.5 508.5 615.5 502 800M337.5 598.5C530 529 277.5 229 501 -1.5" stroke="#5A233E" stroke-width="2"/>
</svg>
