<svg width="54" height="54" viewBox="0 0 54 54" fill="none" xmlns="http://www.w3.org/2000/svg">
<path fill-rule="evenodd" clip-rule="evenodd" d="M19.6401 19.6401C21.5921 17.6881 24.2395 16.5915 27 16.5915C29.7605 16.5915 32.4079 17.6881 34.3599 19.6401C36.3119 21.5921 37.4085 24.2395 37.4085 27C37.4085 29.7605 36.3119 32.408 34.3599 34.3599C32.4079 36.3119 29.7605 37.4085 27 37.4085C24.2395 37.4085 21.5921 36.3119 19.6401 34.3599C17.6881 32.408 16.5915 29.7605 16.5915 27C16.5915 24.2395 17.6881 21.5921 19.6401 19.6401ZM24.4143 33.2424C25.2341 33.582 26.1127 33.7568 27 33.7568C28.792 33.7568 30.5106 33.0449 31.7777 31.7778C33.0449 30.5106 33.7567 28.792 33.7567 27C33.7567 25.208 33.0449 23.4894 31.7777 22.2223C30.5106 20.9551 28.792 20.2433 27 20.2433C26.1127 20.2433 25.2341 20.418 24.4143 20.7576C23.5945 21.0971 22.8497 21.5948 22.2223 22.2223C21.5948 22.8497 21.0971 23.5945 20.7576 24.4143C20.418 25.2341 20.2432 26.1127 20.2432 27C20.2432 27.8873 20.418 28.7659 20.7576 29.5857C21.0971 30.4055 21.5948 31.1503 22.2223 31.7778C22.8497 32.4052 23.5945 32.9029 24.4143 33.2424Z" fill="#CADBA7"/>
<path d="M39.7159 18.1423C40.1773 17.6808 40.4365 17.055 40.4365 16.4025C40.4365 15.75 40.1773 15.1242 39.7159 14.6628C39.2545 14.2013 38.6287 13.9421 37.9762 13.9421C37.3236 13.9421 36.6978 14.2013 36.2364 14.6628C35.775 15.1242 35.5158 15.75 35.5158 16.4025C35.5158 17.055 35.775 17.6808 36.2364 18.1423C36.6978 18.6037 37.3236 18.8629 37.9762 18.8629C38.6287 18.8629 39.2545 18.6037 39.7159 18.1423Z" fill="#CADBA7"/>
<path fill-rule="evenodd" clip-rule="evenodd" d="M18.6516 6.8715C20.8116 6.77295 21.5001 6.75 27 6.75C32.5013 6.75 33.1884 6.7743 35.3471 6.8715C37.503 6.97005 38.9772 7.3143 40.2651 7.81245C41.6158 8.32121 42.8394 9.1182 43.8507 10.148C44.8808 11.1595 45.6778 12.3836 46.1862 13.7349C46.687 15.0228 47.03 16.4957 47.1285 18.6516C47.2271 20.8116 47.25 21.5001 47.25 27C47.25 32.4999 47.2271 33.1884 47.1285 35.3484C47.03 37.5044 46.687 38.9772 46.1875 40.2651C45.6788 41.6158 44.8818 42.8394 43.8521 43.8507C42.8396 44.8821 41.6151 45.6786 40.2651 46.1862C38.9772 46.687 37.5044 47.03 35.3484 47.1285C33.1884 47.2271 32.4999 47.25 27 47.25C21.5001 47.25 20.8116 47.2271 18.6516 47.1285C16.4957 47.03 15.0228 46.687 13.7349 46.1875C12.3842 45.6788 11.1607 44.8818 10.1493 43.8521C9.1179 42.8396 8.3214 41.6151 7.8138 40.2651C7.31295 38.9772 6.97005 37.5044 6.8715 35.3484C6.77295 33.1884 6.75 32.5013 6.75 27C6.75 21.4988 6.7743 20.8116 6.8715 18.653C6.97005 16.497 7.3143 15.0228 7.81245 13.7349C8.32121 12.3842 9.1182 11.1606 10.148 10.1493C11.1605 9.1179 12.3849 8.3214 13.7349 7.8138C15.0228 7.31295 16.4957 6.97005 18.6516 6.8715ZM35.1837 10.5165C33.048 10.4193 32.4068 10.399 27 10.399C21.5933 10.399 20.952 10.4193 18.8163 10.5165C16.8426 10.607 15.7707 10.9363 15.0566 11.2144C14.1769 11.5384 13.3811 12.0556 12.7278 12.7278C12.0204 13.4365 11.5803 14.1116 11.2144 15.0566C10.935 15.7707 10.607 16.8426 10.5165 18.8163C10.4193 20.952 10.399 21.5933 10.399 27C10.399 32.4068 10.4193 33.048 10.5165 35.1837C10.607 37.1574 10.9363 38.2293 11.2144 38.9435C11.5386 39.823 12.0557 40.6187 12.7278 41.2722C13.3812 41.9443 14.177 42.4615 15.0566 42.7856C15.7707 43.065 16.8426 43.3931 18.8163 43.4835C20.952 43.5807 21.5919 43.601 27 43.601C32.4081 43.601 33.048 43.5807 35.1837 43.4835C37.1574 43.3931 38.2293 43.0637 38.9435 42.7856C39.8231 42.4616 40.6189 41.9445 41.2722 41.2722C41.9443 40.6188 42.4615 39.823 42.7856 38.9435C43.065 38.2293 43.3931 37.1574 43.4835 35.1837C43.5807 33.048 43.601 32.4068 43.601 27C43.601 21.5933 43.5807 20.952 43.4835 18.8163C43.3931 16.8426 43.0637 15.7707 42.7856 15.0566C42.4197 14.1116 41.981 13.4365 41.2722 12.7278C40.5635 12.0204 39.8885 11.5803 38.9435 11.2144C38.2293 10.935 37.1574 10.607 35.1837 10.5165Z" fill="#CADBA7"/>
</svg>
