<svg width="54" height="54" viewBox="0 0 54 54" fill="none" xmlns="http://www.w3.org/2000/svg">
<path d="M47.25 9.72794V44.2721C47.25 45.0619 46.9363 45.8193 46.3778 46.3778C45.8193 46.9363 45.0619 47.25 44.2721 47.25H9.72794C8.93814 47.25 8.18069 46.9363 7.62222 46.3778C7.06375 45.8193 6.75 45.0619 6.75 44.2721V9.72794C6.75 8.93814 7.06375 8.18069 7.62222 7.62222C8.18069 7.06375 8.93814 6.75 9.72794 6.75H44.2721C45.0619 6.75 45.8193 7.06375 46.3778 7.62222C46.9363 8.18069 47.25 8.93814 47.25 9.72794ZM18.6618 22.2353H12.7059V41.2941H18.6618V22.2353ZM19.1978 15.6838C19.2009 15.2333 19.1153 14.7866 18.9458 14.3692C18.7763 13.9517 18.5262 13.5718 18.2099 13.251C17.8935 12.9303 17.5171 12.6749 17.1021 12.4996C16.687 12.3244 16.2415 12.2325 15.791 12.2294H15.6838C14.7677 12.2294 13.889 12.5934 13.2412 13.2412C12.5934 13.889 12.2294 14.7677 12.2294 15.6838C12.2294 16.6 12.5934 17.4786 13.2412 18.1265C13.889 18.7743 14.7677 19.1382 15.6838 19.1382C16.1344 19.1493 16.5827 19.0715 17.0031 18.9093C17.4236 18.747 17.808 18.5035 18.1343 18.1927C18.4607 17.8819 18.7225 17.5098 18.905 17.0977C19.0875 16.6856 19.187 16.2416 19.1978 15.791V15.6838ZM41.2941 29.7159C41.2941 23.9863 37.6491 21.7588 34.0279 21.7588C32.8423 21.6995 31.6618 21.952 30.6042 22.4912C29.5466 23.0305 28.6489 23.8376 28.0006 24.8321H27.8338V22.2353H22.2353V41.2941H28.1912V31.1572C28.1051 30.119 28.4321 29.0888 29.1012 28.2903C29.7703 27.4918 30.7275 26.9896 31.7647 26.8928H31.991C33.885 26.8928 35.2906 28.084 35.2906 31.0857V41.2941H41.2465L41.2941 29.7159Z" fill="#CADBA7"/>
</svg>
