<svg width="23" height="34" viewBox="0 0 23 34" fill="none" xmlns="http://www.w3.org/2000/svg">
<path d="M0 9.11133H4.88906C4.88906 9.11133 16.419 10.694 16.419 21.9718C16.419 21.9718 16.419 28.5829 11.1113 28.5829V25.0829C13.4447 24.3051 13.1019 21.9718 13.1019 21.9718C13.1019 13.8051 4.88906 13.3891 4.88906 13.3891L4.11128 13.3891V34.0002H0V9.11133Z" fill="#5A233E"/>
<path d="M23 9.11133H17.9748C17.9748 9.11133 6.44479 10.694 6.44479 21.9718C6.44479 21.9718 6.4448 28.5829 11.7525 28.5829V25.0829C9.41912 24.3051 9.76197 21.9718 9.76197 21.9718C9.76197 13.8051 17.9748 13.3891 17.9748 13.3891L18.7525 13.3891V34.0002H23V9.11133Z" fill="#5A233E"/>
<path fill-rule="evenodd" clip-rule="evenodd" d="M22.9993 0.333008C22.9992 0.333008 22.9991 0.333008 22.999 0.333008C20.7289 0.333008 18.8887 2.12388 18.8887 4.33303C18.8887 6.54219 20.7289 8.33306 22.999 8.33306C22.9991 8.33306 22.9992 8.33306 22.9993 8.33306V0.333008Z" fill="#5A233E"/>
<path fill-rule="evenodd" clip-rule="evenodd" d="M0.000286579 0.333008C2.27075 0.333008 4.11133 2.12387 4.11133 4.33301C4.11133 6.54215 2.27075 8.33301 0.000286579 8.33301V0.333008Z" fill="#5A233E"/>
</svg>
