<svg width="350" height="394" viewBox="0 0 350 394" fill="none" xmlns="http://www.w3.org/2000/svg">
<path d="M135.608 0.587776C123.05 2.06401 109.53 6.82076 99.2702 13.3818C88.8496 19.9975 77.7878 31.3153 70.8943 42.3597C65.7642 50.6157 60.5806 63.027 58.1224 72.9779C55.5039 83.4755 54.8627 89.9819 55.023 104.69L55.1833 117.812L61.3287 117.976C73.0318 118.304 81.5286 115.351 92.0025 107.314C94.2469 105.619 96.0639 104.033 96.0639 103.815C96.0639 103.596 95.102 101.518 93.9798 99.222C84.8952 81.1245 92.6438 62.0428 114.393 48.8661L118.829 46.187V42.2504C118.775 37.603 119.684 35.908 123.371 34.0491C126.684 32.3541 135.234 31.0419 143.09 31.0419C152.442 31.0966 156.984 32.4635 163.183 37.1656L165.855 39.2432L170.13 38.4231C177.718 37.0562 181.619 38.4231 185.306 43.7813C187.658 47.2258 190.597 53.7868 192.307 59.6371C192.895 61.7148 193.536 63.4097 193.643 63.4097C193.75 63.4097 194.338 62.4255 194.925 61.2227C197.651 55.8098 202.407 52.4746 206.468 53.2401C209.354 53.8415 213.148 57.7235 215.446 62.5896C216.515 64.7766 217.37 67.0182 217.37 67.4557C217.37 68.7132 218.171 68.5492 221.805 66.5262C228.164 63.0816 233.401 56.958 237.463 48.21C239.173 44.492 239.279 43.9453 238.638 42.6878C237.623 40.7194 228.485 31.37 223.996 27.7614C200.002 8.35167 163.931 -2.74741 135.608 0.587776Z" fill="#5A233E"/>
<path d="M138.828 32.1183C127.296 33.4946 123.416 34.4304 121.638 36.4122C120.345 37.8435 119.644 41.3117 120.183 43.5687L120.506 45L123.362 43.7889C128.105 41.8622 132.416 40.541 137.75 39.495C140.553 38.8895 144.163 37.8986 145.726 37.293C149.121 35.9718 155.695 35.8067 159.467 36.9627C160.868 37.4031 162 37.6784 162 37.5683C162 37.0178 155.965 33.99 153.432 33.2193C150.468 32.3385 142.223 31.733 138.828 32.1183Z" fill="#5A233E"/>
<path d="M152.955 39.037C155.667 39.5556 158.483 40 159.213 40C160.36 40 160.308 39.8519 158.691 38.963C157.648 38.3704 154.936 38 152.433 38H148L152.955 39.037Z" fill="#5A233E"/>
<path d="M171.049 39.4611C168.588 39.9082 167.646 40.3553 168.117 40.7465C168.222 40.8582 169.688 42.0319 171.415 43.3731C175.708 46.7263 181.572 52.7621 186.597 59.0214C190.681 64.163 191.675 65.2807 191.989 64.9454C192.094 64.8895 191.413 62.4305 190.524 59.5244C187.016 48.0117 182.671 40.6906 178.588 39.4611C176.441 38.8463 174.661 38.8463 171.049 39.4611Z" fill="#5A233E"/>
<path d="M140.707 41.7658C137.498 44.1582 131.669 50.3101 128.514 54.5823L126 58L128.781 55.3797C132.043 52.3038 137.605 49.1139 142.044 47.7468C144.451 46.9494 146.376 46.8354 150.066 47.0633C156.644 47.519 161.939 49.3418 169.854 53.9557C170.763 54.4684 171.886 54.8671 172.368 54.8671C173.116 54.8671 173.17 54.5823 172.688 52.7025C171.779 49.1709 168.945 44.0443 167.019 42.4494C165.469 41.1962 164.613 40.9684 161.351 40.9114C159.265 40.8544 154.291 40.6266 150.334 40.3987L143.114 40L140.707 41.7658Z" fill="#5A233E"/>
<path d="M132.571 43.0103C128.305 44.0371 121.962 46.2959 121.063 47.066C120.783 47.3227 121.456 49.2222 122.635 51.4811C123.758 53.6886 124.88 55.2288 125.105 54.9721C125.386 54.7154 127.294 52.5592 129.483 50.1976C131.616 47.8361 134.591 45.0125 136.107 43.9344C139.25 41.6242 138.745 41.4702 132.571 43.0103Z" fill="#5A233E"/>
<path d="M238.728 49.2103C234.742 57.7404 228.547 64.6301 221.921 67.9655L218.419 69.7153L218.85 72.2305C219.066 73.6522 219.281 77.4798 219.281 80.8153C219.228 87.1034 218.419 89.8921 215.726 92.8995C214.703 94.0478 214.703 94.1025 216.103 99.7345C217.127 103.781 218.312 106.788 220.359 110.342C221.867 113.022 224.184 117.232 225.476 119.638C229.57 127.238 234.634 135.276 239.267 141.51C243.684 147.47 251.064 156 251.818 156C252.68 156 256.182 138.667 257.313 128.66C258.229 120.567 258.229 98.1488 257.313 89.2906C255.697 73.2695 251.818 61.6773 244.007 49.4837C242.445 47.0232 241.045 45 240.883 45C240.775 45 239.806 46.8591 238.728 49.2103Z" fill="#5A233E"/>
<path d="M172.428 47.2447C172.839 47.9801 173.559 50.0734 174.021 51.9404C174.432 53.8074 174.998 55.3916 175.203 55.5047C175.409 55.5613 177.875 56.8625 180.702 58.3901C183.528 59.9176 185.892 61.1057 185.995 60.9925C186.303 60.7097 172.891 46 172.274 46C171.863 46 171.914 46.396 172.428 47.2447Z" fill="#5A233E"/>
<path d="M116.064 49.5612C109.406 53.3579 101.417 60.621 97.7422 66.1784C91.1378 76.1377 90.1791 87.9678 95.1324 97.9271C97.6357 102.824 97.5292 102.769 98.8074 100.568L99.9259 98.5874L97.8487 94.2955C93.7476 85.8219 93.2683 79.6042 96.3042 73.3315C99.9259 65.8483 108.341 61.5564 117.289 62.5468L120.538 62.877L122.296 60.1258L124 57.3196L122.136 53.2478C121.071 50.9368 120.218 48.8459 120.218 48.5158C120.218 47.5804 119.047 47.9105 116.064 49.5612Z" fill="#5A233E"/>
<path d="M142.398 49.3218C141.447 49.5459 142.186 49.6803 144.775 49.6803C146.835 49.6803 150.11 50.0837 152.171 50.6215C155.71 51.473 163 52.3246 163 51.8764C163 51.7419 161.045 51.1145 158.668 50.487C154.072 49.2321 145.092 48.5599 142.398 49.3218Z" fill="#5A233E"/>
<path d="M135.388 51.7054C133.719 52.6798 131.082 54.7432 129.468 56.2334C126.939 58.6406 126.723 59.0419 127.208 60.2455C127.746 61.5638 127.907 61.4491 130.867 57.4943C132.804 54.8578 134.957 52.7371 136.733 51.6481C140.446 49.4128 139.316 49.4701 135.388 51.7054Z" fill="#5A233E"/>
<path d="M140.806 51.9436C138.571 52.8018 134 56.2344 134 56.9782C134 57.0926 134.863 56.7494 135.93 56.12C138.775 54.4609 143.702 52.8018 147.054 52.2869L150 51.8292L147.968 51.4287C144.921 50.7422 143.651 50.8566 140.806 51.9436Z" fill="#5A233E"/>
<path d="M149.369 53.5423C141.545 54.2964 131.793 58.5517 130.292 61.8374C129.488 63.6688 130.399 65.608 132.329 66.0927C133.186 66.3082 136.723 67.8164 140.259 69.4324C145.564 71.8024 147.225 72.3411 149.69 72.3411C154.406 72.3411 159.764 73.7415 164.587 76.1655C167.213 77.5121 169.249 78.2123 169.517 77.943C170.481 76.9734 172.786 67.6548 172.893 64.3152L173 60.8679L167.106 58.2285C160.461 55.2121 154.674 52.8959 154.084 53.0036C153.87 53.0575 151.78 53.2729 149.369 53.5423Z" fill="#5A233E"/>
<path d="M167.239 56.494C170.264 57.993 172.82 59.1034 172.976 58.9923C173.133 58.8258 172.507 57.993 171.568 57.1602C169.899 55.5502 167.604 54.6064 163.848 54.0512C162.179 53.8291 162.805 54.2733 167.239 56.494Z" fill="#5A233E"/>
<path d="M202.283 55.8555C200.233 56.8905 197.132 60.7583 195.713 64.1359C194.031 67.8947 194.872 68.5484 203.229 69.6924C207.54 70.2917 214.531 69.9648 215.845 69.1477C216.738 68.5484 213.585 61.4121 211.167 58.5793C208.118 54.9294 205.595 54.1667 202.283 55.8555Z" fill="#5A233E"/>
<path d="M175 58.0804C175 58.6505 178.155 61.553 179.552 62.3304C181.983 63.5743 190 66.3731 190 65.9585C190 65.1292 181.569 60.2572 177.224 58.5468C175.983 58.0804 175 57.873 175 58.0804Z" fill="#5A233E"/>
<path d="M124.532 62.0504C123.684 63.6504 123.862 64.3676 124.979 63.8159C125.873 63.4297 126.32 61.8849 125.739 61.1676C125.426 60.7814 125.069 61.0573 124.532 62.0504Z" fill="#5A233E"/>
<path d="M173.627 67.7044C173.016 71.0094 172.353 74.2593 172.15 74.9754C171.895 75.9669 171.946 76.1872 172.455 75.8567C172.812 75.6364 174.391 75.2508 175.971 75.0856L178.824 74.7551L178.977 71.4501C179.079 68.751 178.875 67.5942 177.703 65.1155C175.512 60.4334 174.952 60.8189 173.627 67.7044Z" fill="#5A233E"/>
<path d="M109.072 64.6884C99.2907 67.4705 94.2939 75.8711 96.5265 85.7992C97.377 89.454 100.194 96 100.992 96C101.204 96 102.161 94.5817 103.118 92.8361C107.955 84.0536 117.099 68.0705 118.215 66.3795C118.8 65.5067 119.119 64.6884 118.959 64.4702C118.215 63.7611 111.889 63.8702 109.072 64.6884Z" fill="#5A233E"/>
<path d="M180.039 64.3847C181.058 66.9525 181.434 69.3491 181.273 72.0881L181.112 75.0554L184.599 76.3678C186.53 77.0525 188.462 77.7943 188.891 77.9655C189.535 78.1938 189.91 77.3378 190.661 73.9141C191.198 71.5175 191.788 69.178 191.949 68.7215C192.11 68.2079 191.895 67.9226 191.251 67.9226C190.661 67.9226 187.871 66.8955 184.974 65.6401C180.843 63.9282 179.77 63.6429 180.039 64.3847Z" fill="#5A233E"/>
<path d="M122.229 66.3985C121.029 69.0387 120 71.6789 120 71.9778C120.057 72.4261 124 65.9502 124 65.452C124 64.5056 122.8 65.1532 122.229 66.3985Z" fill="#5A233E"/>
<path d="M115.609 73.6698C107.528 87.6052 102 97.3815 102 97.8676C102 98.5158 109.761 106.834 111.622 108.184C113.057 109.21 113.323 109.21 117.416 108.508C119.755 108.076 121.828 107.644 121.988 107.482C122.094 107.32 121.509 104.997 120.605 102.297C117.15 91.7642 116.565 78.585 119.17 70.159C119.914 67.8905 120.393 66 120.286 66C120.233 66 118.107 69.4568 115.609 73.6698Z" fill="#5A233E"/>
<path d="M124.35 68.2687C121.521 73.1424 120.33 77.637 120.081 84.4601C119.883 90.0377 119.982 91.2832 121.124 95.6153C122.761 101.843 124.548 106.662 125.342 106.987C125.789 107.15 125.938 105.796 125.938 101.68C125.938 94.6947 127.03 88.8463 129.263 84.2435L131 80.6694L129.71 78.5575C127.923 75.5792 126.93 72.1676 126.93 68.8644C126.93 65.2362 126.186 65.0738 124.35 68.2687Z" fill="#5A233E"/>
<path d="M129 69.2862C129 72.0995 130.477 76.1337 132.336 78.4161C133.047 79.2654 133.211 79.2124 134.578 78.0977L136 76.8237L133.266 72.418C129.328 65.9952 129 65.7298 129 69.2862Z" fill="#5A233E"/>
<path d="M132.057 68.4695C132.172 68.7042 133.148 70.5822 134.239 72.5775C135.617 75.1009 136.536 76.1573 137.11 75.9812C140.67 74.8662 144 73.5164 144 73.223C144 72.9296 132.976 68 132.23 68C132 68 131.943 68.1761 132.057 68.4695Z" fill="#5A233E"/>
<path d="M192.116 73.1137C191.618 75.1308 191.119 77.2025 191.019 77.6931C190.869 78.1838 191.618 79.2196 192.765 80.2554C193.862 81.2368 194.86 82 194.96 82C195.259 82 193.812 70.9875 193.363 70.1152C193.114 69.6246 192.665 70.7149 192.116 73.1137Z" fill="#5A233E"/>
<path d="M195.663 71.1993C196.93 72.6712 206.433 87.3355 209.072 91.9147C210.92 95.1855 211.5 95.6217 211.976 94.3133C212.345 93.2775 208.439 85.5365 205.43 81.2299C202.685 77.4139 195.927 70 195.136 70C194.819 70 195.083 70.5451 195.663 71.1993Z" fill="#5A233E"/>
<path d="M201.305 73.4801C205.491 77.8994 209.402 83.4234 212.045 88.616C214.249 93.0905 214.524 93.0905 216.727 88.837C217.994 86.4064 218.435 77.6232 217.498 73.2039L216.837 70.0552L214.028 70.4419C210.338 70.9943 204.775 70.9943 200.974 70.4419L198 70L201.305 73.4801Z" fill="#5A233E"/>
<path d="M157.679 78.4457L165.802 83L166.56 81.5199C167.21 80.1536 167.156 79.9259 166.289 79.1858C164.34 77.5918 159.628 75.5993 155.946 74.8023C148.96 73.2083 149.231 73.7776 157.679 78.4457Z" fill="#5A233E"/>
<path d="M196 75.1561C196 75.5833 196.215 77.8799 196.538 80.2832C196.915 83.915 197.346 85.09 198.854 87.2797C199.823 88.7217 201.385 91.499 202.246 93.4751C203.431 96.1455 204.023 97 204.885 97C206.177 97 210 95.9852 210 95.6114C210 95.2909 199.069 78.414 197.4 76.2242C196.646 75.2095 196 74.7288 196 75.1561Z" fill="#5A233E"/>
<path d="M141.212 76.0029C139.765 76.6007 138.372 77.2528 138.051 77.5788C137.783 77.8505 138.587 79.9155 140.194 82.7956C142.712 87.5234 142.819 87.5777 146.034 88.8276C150.213 90.4035 156.749 91.3273 160.553 90.8926C163.714 90.5122 163.982 90.1861 164.679 86.2735L165 84.3716L156.267 79.6438C146.677 74.4813 145.659 74.2096 141.212 76.0029Z" fill="#5A233E"/>
<path d="M172.781 77.893C170.537 79.136 170.439 80.0548 172.342 82.1625C173.269 83.1893 174.098 84 174.244 84C174.586 84 178 77.947 178 77.4066C178 76.65 174.39 77.0283 172.781 77.893Z" fill="#5A233E"/>
<path d="M179.156 79.0666C178.664 80.2396 177.516 82.1945 176.641 83.4232L175 85.6016L176.422 87.6682C177.516 89.1762 178.938 90.1816 181.891 91.4663C184.133 92.4716 186.047 93.1419 186.211 92.9743C186.375 92.8068 187.086 89.9024 187.742 86.4952L189 80.2954L187.797 79.5134C186.539 78.6756 181.781 77 180.742 77C180.359 77 179.648 77.9495 179.156 79.0666Z" fill="#5A233E"/>
<path d="M135.241 79.9198L134 80.9421L135.397 82.5025C136.172 83.3097 137.517 84.4396 138.397 85.0315L140 86L138.345 82.5564C137.466 80.7269 136.69 79.1127 136.586 79.0051C136.534 78.9513 135.914 79.3279 135.241 79.9198Z" fill="#5A233E"/>
<path d="M190 81.2336C190 81.29 189.55 83.9972 189 87.2684C188.45 90.5395 188 93.3595 188 93.5851C188 94.0927 194.05 96.3487 194.55 95.9539C194.8 95.7847 195 93.3031 195 90.4267V85.1252L193 83.0948C191.35 81.4028 190 80.5568 190 81.2336Z" fill="#5A233E"/>
<path d="M131.723 82.6084C130.44 84.2537 128.878 87.9831 128.041 91.6576C127.204 95.2772 126.646 106.356 127.26 106.959C127.427 107.069 129.882 106.959 132.783 106.63C135.684 106.356 139.589 106.081 141.541 106.081H145V102.352C145 98.8421 143.773 93.6319 142.099 89.7929C141.597 88.6412 140.091 87.2701 138.027 85.899C136.186 84.7473 134.345 83.3762 133.899 82.8826C133.006 81.7858 132.504 81.7309 131.723 82.6084Z" fill="#5A233E"/>
<path d="M169.287 83.1567C168.734 84.1875 168.918 84.574 170.392 85.3471C172.97 86.7643 173.891 85.7336 171.988 83.6077C170.146 81.5462 170.146 81.5462 169.287 83.1567Z" fill="#5A233E"/>
<path d="M167.462 87.503C166.608 89.3363 166.852 89.4627 168.926 88.0087C170.085 87.2501 170.268 86.8708 169.658 86.4915C168.438 85.6696 168.194 85.7961 167.462 87.503Z" fill="#5A233E"/>
<path d="M169.451 89.7042C167.307 90.9136 166.288 91.7931 166.074 92.7826C165.645 94.7067 167.146 100.039 169.13 103.832C170.577 106.636 171.006 107.076 172.722 107.405C173.794 107.57 176.314 108.065 178.352 108.505C180.389 108.89 182.266 109.11 182.48 108.945C183.928 108.065 182.212 100.534 179.049 93.9371C177.601 91.0785 176.904 90.2539 174.92 89.2094L172.508 88L169.451 89.7042Z" fill="#5A233E"/>
<path d="M197.448 90.313C197.448 91.8477 197.292 93.8757 197.135 94.7527C196.822 96.3971 196.875 96.4519 199.273 96.7808C200.628 97 201.827 97.0548 201.983 96.9452C202.244 96.6163 199.377 90.0389 198.282 88.6138C197.5 87.5724 197.5 87.682 197.448 90.313Z" fill="#5A233E"/>
<path d="M144.128 89.8509C145.867 95.7631 146.605 99.3104 146.605 102.295V105.786L152.825 105.955C156.199 106.067 159.203 105.955 159.414 105.786C159.836 105.448 163.947 93.0604 164 92.0468C164 91.709 162.84 91.5964 160.995 91.7653C155.672 92.2721 149.715 91.3148 144.813 89.1752C143.97 88.8373 143.864 88.9499 144.128 89.8509Z" fill="#5A233E"/>
<path d="M179.946 93.7286C180.537 94.619 181.661 97.1333 182.548 99.2286L184.085 103L185.15 99.0714C185.741 96.8714 186.096 94.9857 185.977 94.881C185.859 94.7238 184.203 94.0429 182.37 93.3095L179 92L179.946 93.7286Z" fill="#5A233E"/>
<path d="M187.316 96.563C187.105 97.4893 186.526 99.9786 186 102.236C185.421 104.436 185 107.215 185 108.373C185 110.167 185.211 110.572 186.316 110.862C188.105 111.383 189.474 110.457 191.316 107.62C192.526 105.825 195 99.0523 195 97.6051C195 97.3735 188.632 95 188.053 95C187.842 95 187.526 95.6947 187.316 96.563Z" fill="#5A233E"/>
<path d="M213 96.2857C213 96.8 213.867 100 213.982 100C214.04 100 213.953 99.0857 213.78 98C213.607 96.9143 213.376 96 213.231 96C213.116 96 213 96.1143 213 96.2857Z" fill="#5A233E"/>
<path d="M162.375 101.715C161.552 104.262 160.949 106.429 161.003 106.484C161.113 106.538 162.705 106.755 164.625 106.917C168.247 107.188 168.686 106.863 167.204 104.912C166.765 104.37 165.887 102.311 165.284 100.468C164.625 98.5716 164.022 97 163.967 97C163.857 97 163.144 99.1135 162.375 101.715Z" fill="#5A233E"/>
<path d="M207.238 97.6876C204.598 98.2957 203.812 98.7379 204.036 99.346C204.261 99.7882 204.767 102.552 205.216 105.427C206.058 111.231 206.171 117.976 205.497 123.946C205.216 126.047 205.104 127.871 205.16 127.981C205.665 128.59 212.742 114.106 214.989 107.859L216 105.04L213.641 101.06C212.349 98.9037 211.17 97.0795 211.001 97.0242C210.889 96.9136 209.204 97.19 207.238 97.6876Z" fill="#5A233E"/>
<path d="M195.831 100.129C195.428 102.967 193.468 107.333 191.558 109.68L190 111.645L192.865 113.173C196.987 115.466 200.455 119.068 202.114 122.834L203.471 126L203.823 121.743C204.275 116.667 203.823 107.333 202.918 102.639C202.516 100.729 202.164 99.0916 202.013 98.9825C201.913 98.8733 200.555 98.6004 198.997 98.3821L196.182 98L195.831 100.129Z" fill="#5A233E"/>
<path d="M99.6713 101.56C98.7012 103.216 98.7012 103.216 100.21 104.765C101.773 106.368 108.51 110 109.965 110C110.612 110 102.043 100.492 100.911 100.011C100.749 99.904 100.21 100.598 99.6713 101.56Z" fill="#5A233E"/>
<path d="M96.8268 107.575C92.2395 118.708 93.2649 130.277 99.6871 140.537C102.493 145.066 109.671 151.942 114.906 155.162C117.389 156.745 119.601 158 119.817 158C120.627 158 118.576 152.706 117.011 150.742C115.068 148.341 112.586 143.32 111.722 140.264C110.805 136.826 111.02 131.259 112.154 129.076L113.179 127.221L108.754 123.728C106.379 121.764 103.087 119.362 101.576 118.326C98.6078 116.415 97.9062 114.833 99.6871 114.069C100.173 113.851 102.062 113.087 103.843 112.377L107.081 111.176L105.462 110.522C104.598 110.194 102.763 109.103 101.414 108.12C97.5824 105.392 97.7443 105.392 96.8268 107.575Z" fill="#5A233E"/>
<path d="M90.962 109.463C86.787 112.627 80.2568 115.956 75.2253 117.538C70.4615 119.011 62.7002 119.884 58.311 119.448L54.7783 119.12L54.0825 121.467C53.7078 122.776 52.2626 125.941 50.8174 128.505C49.4257 131.07 47.7664 134.18 47.1776 135.435L46 137.672L52.0485 141.383C63.7707 148.585 74.476 156.224 89.3562 168.01C110.606 184.925 118.528 190.163 127.628 193.491C132.177 195.128 140.848 195.51 145.559 194.255C148.77 193.382 154.872 190.709 155.943 189.617C156.211 189.345 155.515 188.362 154.337 187.38C150.804 184.379 146.683 179.741 143.097 174.885L139.671 170.192L136.138 170.083C129.447 169.92 125.861 167.955 122.543 162.772C121.151 160.535 119.973 159.498 117.993 158.516C112.961 156.006 107.662 151.968 103.112 147.057C95.94 139.418 92.0326 130.252 92.0326 121.139C92.0326 117.756 93.1566 111.372 94.2271 108.699C94.6018 107.88 94.7624 107.116 94.6553 107.007C94.5483 106.898 92.889 108.044 90.962 109.463Z" fill="#5A233E"/>
<path d="M145.787 108.21C145.42 108.925 144.79 110.135 144.476 110.905C144.161 111.73 143.165 113.215 142.221 114.315C141.33 115.36 140.805 116.405 141.068 116.57C141.54 116.845 152.97 118 155.749 118C157.27 118 157.427 117.835 157.427 116.185C157.427 115.25 157.794 112.94 158.213 111.125C158.633 109.31 158.948 107.66 159 107.385C159 107.165 156.221 107 152.76 107C146.888 107 146.521 107.055 145.787 108.21Z" fill="#5A233E"/>
<path d="M134.194 108.38C128.361 108.976 128 109.085 128 110.495C128 111.255 128.361 112.557 128.774 113.371C129.445 114.781 129.91 114.998 133.677 115.595C137.29 116.192 137.961 116.137 139.045 115.378C140.594 114.347 142.71 111.472 143.432 109.465L144 108L139.974 108.108C137.806 108.108 135.174 108.271 134.194 108.38Z" fill="#5A233E"/>
<path d="M160.61 109.163C159.656 113.239 158.861 118.14 159.02 118.471C159.179 118.691 160.875 119.021 162.835 119.242C164.795 119.462 168.504 120.013 171.1 120.453C176.397 121.445 176.45 121.445 178.57 117.369L180 114.67L178.517 114.285C176.238 113.734 174.278 112.523 171.947 110.375C169.987 108.557 169.616 108.392 165.431 108.172C161.034 107.841 160.928 107.896 160.61 109.163Z" fill="#5A233E"/>
<path d="M173.325 109.751C174.273 110.948 178.227 113 179.598 113C180.23 113 180.81 112.544 180.968 111.86C181.232 110.663 179.914 110.036 175.011 109.239C172.85 108.84 172.692 108.897 173.325 109.751Z" fill="#5A233E"/>
<path d="M118.176 110.669L115 111.235L116.412 112.058C117.874 112.933 124.478 114.373 124.932 113.91C125.436 113.447 123.016 109.949 122.209 110.001C121.705 110.052 119.941 110.361 118.176 110.669Z" fill="#5A233E"/>
<path d="M214.705 112.558C213.4 116.205 208.39 126.601 206.302 129.976C205.362 131.554 204.162 134.494 203.744 136.508C202.962 140.1 200.195 146.033 197.116 150.659C196.281 151.966 195.811 153 196.072 153C196.281 153 197.638 152.238 199.099 151.313C208.964 144.89 215.018 132.153 215.853 116.096C216.01 112.776 216.062 110 215.905 110C215.749 110 215.227 111.143 214.705 112.558Z" fill="#5A233E"/>
<path d="M217.424 115.434C216.943 123.454 215.071 131.039 211.917 137.641C208.602 144.461 203.042 150.409 197.321 153.082C194.113 154.61 193.044 155.483 190.05 159.193C183.634 167.16 166.739 183.856 160.911 188.003C160.269 188.439 159.842 189.094 160.056 189.367C160.697 190.513 168.824 194.005 173.689 195.314C187.751 198.97 210.099 196.624 234.693 188.821C238.65 187.566 238.703 187.512 240.414 184.292C242.873 179.655 247.151 169.397 249.236 163.176L251 157.884L246.937 153.628C237.527 143.697 229.4 131.421 218.279 110.196C217.905 109.432 217.638 110.85 217.424 115.434Z" fill="#5A233E"/>
<path d="M106.105 112.747C99.8754 114.412 99.8212 114.52 103.396 116.992C105.076 118.174 108.109 120.484 110.168 122.096C114.826 125.75 116.126 125.965 114.176 122.687C112.605 119.947 112.551 119.625 113.58 119.625C114.014 119.625 114.935 120.592 115.585 121.774C116.614 123.547 116.993 123.87 117.914 123.547C118.564 123.278 121.056 123.117 123.548 123.117C128.369 123.117 128.369 123.171 127.664 119.786C127.394 118.442 126.96 118.013 125.118 117.475C123.873 117.099 121.652 116.186 120.135 115.433C118.672 114.681 115.693 113.553 113.58 112.908C109.788 111.726 109.734 111.726 106.105 112.747Z" fill="#5A233E"/>
<path d="M186.24 113.543C185.424 113.924 184.88 115.067 184.282 117.678C183.847 119.692 183.303 121.759 183.085 122.249C182.759 122.956 183.303 123.5 185.859 124.806C189.558 126.656 193.202 130.247 194.453 133.131C194.888 134.274 195.269 136.722 195.269 138.572L195.323 142L197.608 139.497C202.122 134.6 203.101 132.696 202.992 129.268C202.775 123.283 198.532 117.678 191.842 114.359C188.579 112.782 187.98 112.673 186.24 113.543Z" fill="#5A233E"/>
<path d="M179.705 117.72C178.677 119.782 177.906 121.509 178.009 121.565C178.112 121.677 178.832 121.844 179.654 121.955C181.093 122.122 181.248 121.955 182.07 119.057C182.584 117.385 182.995 115.546 182.995 114.989C183.098 112.927 181.505 114.209 179.705 117.72Z" fill="#5A233E"/>
<path d="M124.631 116.5C125.268 116.778 126.195 117 126.658 117C127.179 117 127.121 116.778 126.369 116.5C125.732 116.222 124.805 116 124.342 116C123.821 116 123.879 116.222 124.631 116.5Z" fill="#5A233E"/>
<path d="M136.609 118.263C136.021 118.543 134.843 118.767 133.933 118.823C132.381 118.879 132.435 118.991 136.663 123.25C142.175 128.797 147.902 132.047 153.04 132.608L156.572 133L156.786 126.612C156.893 123.082 157 120.168 157 120.168C156.946 120.112 152.986 119.72 148.116 119.215C143.246 118.767 138.911 118.263 138.482 118.095C138.054 117.926 137.198 117.982 136.609 118.263Z" fill="#5A233E"/>
<path d="M129.133 120.883C129.35 122.175 129.674 123.364 129.89 123.571C130.053 123.726 131.512 124.398 133.08 124.966L136 126L132.864 122.796C131.134 121.038 129.512 119.333 129.242 119.074C128.971 118.764 128.917 119.436 129.133 120.883Z" fill="#5A233E"/>
<path d="M158.327 122.626C158.163 123.518 158 126.037 158 128.135C158 132.7 158.109 132.752 163.721 130.706C167.644 129.29 171.022 127.191 173.474 124.778L175 123.151L172.929 122.626C170.26 121.997 162.849 121 160.506 121C158.926 121 158.654 121.21 158.327 122.626Z" fill="#5A233E"/>
<path d="M173.404 126.127C170.246 129.303 163.717 133.102 161.416 133.102C160.827 133.102 160.185 133.385 160.024 133.669C159.596 134.406 164.895 133.839 168.855 132.705C172.708 131.627 175.705 129.756 178.114 126.921C180.415 124.2 180.522 123.689 178.916 123.236C176.936 122.725 176.776 122.782 173.404 126.127Z" fill="#5A233E"/>
<path d="M117.994 125.212C117.442 125.317 117 125.529 117 125.582C117 126.428 120.093 130.764 121.143 131.398C122.414 132.192 122.69 132.192 124.181 131.451C125.065 131.028 126.28 130.658 126.943 130.658C127.993 130.658 128.103 130.394 127.938 127.855L127.772 125.106L123.353 125C120.922 125 118.491 125.053 117.994 125.212Z" fill="#5A233E"/>
<path d="M178.94 127.753C177.031 130.023 175.229 131.407 172.419 132.791C168.973 134.508 167.86 134.784 163.248 135.006L158 135.283L158.318 138.383C158.689 142.037 159.325 142.702 165.687 146.522C171.147 149.789 175.441 151.56 179.523 152.391L182.757 153L185.248 151.007C189.383 147.685 191.928 145.138 192.458 143.643C193.359 141.207 193.094 135.283 191.981 133.013C190.814 130.687 188.27 128.085 185.566 126.424C182.173 124.32 181.802 124.376 178.94 127.753Z" fill="#5A233E"/>
<path d="M130.032 128.128L130.242 130.201L133.544 130.583C135.326 130.746 138.208 131.401 139.833 132.001C143.816 133.42 143.921 133.42 140.829 131.401C137.946 129.437 131.238 126 130.399 126C130.085 126 129.928 126.873 130.032 128.128Z" fill="#5A233E"/>
<path d="M113.83 129.364C112.045 132.418 113.251 140.545 116.387 146.436L117.737 149L118.075 144.255C118.22 141.527 118.75 138.582 119.329 137.164C120.198 134.873 120.198 134.655 119.474 133.073C118.847 131.655 115.422 128 114.795 128C114.698 128 114.264 128.6 113.83 129.364Z" fill="#5A233E"/>
<path d="M126.091 132.301C124.95 132.602 124 133.024 124 133.325C124 133.566 125.077 134.53 126.408 135.434L128.752 137L128.942 134.831C129.195 132.06 128.688 131.578 126.091 132.301Z" fill="#5A233E"/>
<path d="M130 135.216V138.431L133.918 140.993C142.936 146.933 154.907 152.874 155.873 151.893C156.141 151.621 156.517 149.55 156.678 147.26L157 143.173L154.638 141.647C150.559 139.031 142.614 134.943 139.447 133.799C137.783 133.254 134.992 132.6 133.221 132.382L130 132V135.216Z" fill="#5A233E"/>
<path d="M150.711 136.399C157.044 141.021 157.41 141.077 156.782 137.235C156.468 135.62 156.154 135.341 154.479 135.007C153.433 134.784 150.921 134.005 148.932 133.281C146.943 132.613 145.164 132 145.007 132C144.85 132 147.414 134.005 150.711 136.399Z" fill="#5A233E"/>
<path d="M123 135.058C123 135.496 128.182 145.442 128.727 145.988C128.891 146.152 129 144.567 129 142.491L128.945 138.72L126 136.643C124.364 135.496 123 134.785 123 135.058Z" fill="#5A233E"/>
<path d="M120.921 138.453C120.605 139.314 120.185 142.167 120.08 144.912C119.765 150.617 120.29 152.016 123.337 153.523C125.439 154.545 126.437 154.007 127.646 151.101C128.329 149.379 128.276 149.163 125.176 143.136C123.39 139.745 121.866 137 121.709 137C121.604 137 121.236 137.646 120.921 138.453Z" fill="#5A233E"/>
<path d="M199.855 139.262C198.785 140.554 196.814 142.869 195.406 144.377C191.296 148.954 189.663 151 190.057 151C191.352 151 199.911 143.785 199.911 142.708C199.911 142.546 200.418 141.2 201.037 139.692C201.657 138.238 202.051 137 201.995 137C201.882 137 200.925 138.023 199.855 139.262Z" fill="#5A233E"/>
<path d="M41.1191 149.645C38.7161 154.984 35.779 161.251 34.6576 163.594C31.9341 169.097 31.9341 170.895 34.6041 173.892C36.6334 176.235 42.561 179.505 45.8185 180.104C47.1001 180.376 47.7409 180.867 48.1681 181.902C48.6487 183.264 48.4885 188.114 47.7409 192.364C47.3671 194.598 48.3817 197.104 50.6246 199.557C51.8528 200.864 51.9596 201.246 51.3722 202.117C50.144 204.134 50.6246 208.002 52.6004 212.47C54.9501 217.756 55.0035 220.099 52.8675 224.73C49.8236 231.324 50.945 238.353 55.7511 243.257C59.8096 247.398 63.0671 248.27 70.4899 247.398C83.6267 245.872 88.2192 245.6 95.0546 245.872C99.0063 246.036 103.599 246.472 105.201 246.798C109.633 247.725 116.522 250.068 118.124 251.267C119.886 252.52 120.687 255.135 120.687 259.603C120.687 264.834 120.153 266.85 118.338 268.703C114.92 272.245 102.691 276.876 83.5733 281.944C79.4614 283.034 75.0291 284.287 73.694 284.668C72.359 285.05 67.8199 286.303 63.5477 287.393C59.2756 288.483 51.212 290.826 45.6049 292.624C27.3415 298.345 17.3555 303.14 12.1755 308.807C5.01974 316.653 0 337.25 0 359.046C0 376.7 3.09728 387.435 9.50546 392.012L11.8551 393.646L64.242 393.81C131.688 394.028 340.422 394.234 344 393.362C346.189 392.817 348.017 387.653 349.085 383.566C350.314 378.771 350.314 364.931 349.032 356.485C345.721 334.635 338.352 316.435 328.846 306.9C324.788 302.813 321.423 300.797 301.985 290.826C293.761 286.63 284.096 281.453 280.465 279.437C276.887 277.367 273.682 275.678 273.415 275.678C273.202 275.678 272.882 275.46 272.775 275.242C272.721 274.969 270.799 273.607 268.609 272.136C261.667 267.613 254.565 261.728 249.225 256.116C244.365 250.994 238.705 243.148 238.705 241.568C238.705 241.132 238.491 240.805 238.224 240.805C237.637 240.805 234.806 233.558 233.578 229.09C232.991 226.91 232.617 222.769 232.457 216.83C232.136 206.368 233.151 199.774 235.928 194.053C237.69 190.511 237.53 190.13 234.753 191.22C228.985 193.454 210.829 197.54 201.964 198.576C185.41 200.537 173.021 198.848 162.554 193.181L158.335 190.893L153.796 193.236C147.281 196.56 143.543 197.377 136.708 197.05C126.081 196.56 117.537 192.2 99.7539 178.36C80.1022 162.994 69.4219 154.984 62.4797 150.298C55.3239 145.503 46.4593 140 45.8185 140C45.6583 140 43.5756 144.359 41.1191 149.645Z" fill="#5A233E"/>
<path d="M130.365 144.309L130 148.673L133.385 155C135.208 158.545 137.031 161.818 137.396 162.309C137.917 163.073 139.271 163.345 143.802 163.618L149.583 164L151.094 162.145C152.604 160.236 155 155.382 155 154.127C155 153.745 154.01 153.036 152.812 152.545C148.75 150.909 139.688 145.945 135.156 142.945L130.677 140L130.365 144.309Z" fill="#5A233E"/>
<path d="M158.473 147.389C158.317 149.218 158.11 151.208 158.006 151.746C157.85 153.037 160.861 153.952 167.765 154.759C172.644 155.351 179.704 154.759 177.627 154.006C171.865 151.746 167.09 149.326 160.705 145.183L158.836 144L158.473 147.389Z" fill="#5A233E"/>
<path d="M193.667 150.783C193.025 151.235 191.247 152.14 189.766 152.844L187 154L189.667 153.698C192.828 153.346 192.828 153.346 194.161 151.436C195.396 149.677 195.297 149.626 193.667 150.783Z" fill="#5A233E"/>
<path d="M128.505 153.189C128.189 153.837 127.346 154.81 126.556 155.404C125.187 156.431 125.029 156.485 122.975 155.62C120.815 154.756 120.815 154.756 121.184 155.944C121.921 158.646 122.975 159.457 127.03 160.807C133.561 163.023 135.193 163.401 134.982 162.644C134.719 161.618 129.558 152 129.295 152C129.137 152 128.768 152.54 128.505 153.189Z" fill="#5A233E"/>
<path d="M155.15 159.058L153 164L156.093 163.651C160.078 163.128 166.159 161.384 170.616 159.407C176.435 156.849 176.435 156.616 170.773 156.5C167.784 156.442 164.062 155.86 161.598 155.163C159.291 154.523 157.404 154 157.404 154C157.351 154.058 156.355 156.267 155.15 159.058Z" fill="#5A233E"/>
<path d="M178.916 157.516C172.418 161.392 162.751 164.568 154.534 165.591C152.063 165.86 149.646 166.452 149.163 166.883C147.928 167.906 143.954 169.897 142.987 169.897C141.537 169.897 141.644 170.705 143.578 173.612C145.887 177.057 154.91 186.585 156.843 187.608C158.132 188.308 158.401 188.2 161.032 186.208C165.221 182.979 170.108 178.618 177.198 171.566C182.89 165.968 191 156.978 191 156.332C191 156.17 188.905 156.009 186.328 156.009C182.031 155.955 181.333 156.116 178.916 157.516Z" fill="#5A233E"/>
<path d="M124 161.218C124 162.438 127.161 165.75 129.518 166.971C132.143 168.307 139 169.586 139 168.714C139 168.482 138.518 167.494 137.929 166.448C137.125 165.053 136.321 164.414 134.821 164.123C133 163.775 126.411 161.799 124.75 161.101C124.321 160.927 124 160.985 124 161.218Z" fill="#5A233E"/>
<path d="M139.897 166.611C140.744 168.021 140.993 168.172 142.588 167.87C144.282 167.518 147.321 166.158 146.972 165.856C146.923 165.806 145.079 165.554 142.887 165.352L139 165L139.897 166.611Z" fill="#5A233E"/>
</svg>
