<svg width="1440" height="681" viewBox="0 0 1440 681" fill="none" xmlns="http://www.w3.org/2000/svg">
<path d="M239.608 287.588C227.05 289.064 213.53 293.821 203.27 300.382C192.85 306.998 181.788 318.315 174.894 329.36C169.764 337.616 164.581 350.027 162.122 359.978C159.504 370.476 158.863 376.982 159.023 391.69L159.183 404.812L165.329 404.976C177.032 405.304 185.529 402.351 196.003 394.314C198.247 392.619 200.064 391.033 200.064 390.815C200.064 390.596 199.102 388.518 197.98 386.222C188.895 368.124 196.644 349.043 218.393 335.866L222.829 333.187V329.25C222.775 324.603 223.684 322.908 227.371 321.049C230.684 319.354 239.234 318.042 247.09 318.042C256.442 318.097 260.984 319.463 267.183 324.166L269.855 326.243L274.13 325.423C281.718 324.056 285.619 325.423 289.306 330.781C291.658 334.226 294.597 340.787 296.307 346.637C296.895 348.715 297.536 350.41 297.643 350.41C297.75 350.41 298.338 349.426 298.925 348.223C301.651 342.81 306.407 339.475 310.468 340.24C313.354 340.842 317.148 344.723 319.446 349.59C320.515 351.777 321.37 354.018 321.37 354.456C321.37 355.713 322.171 355.549 325.805 353.526C332.164 350.082 337.401 343.958 341.463 335.21C343.173 331.492 343.279 330.945 342.638 329.688C341.623 327.719 332.485 318.37 327.996 314.761C304.002 295.352 267.931 284.253 239.608 287.588Z" fill="#5A233E"/>
<path d="M242.828 319.118C231.296 320.495 227.416 321.43 225.638 323.412C224.345 324.844 223.644 328.312 224.183 330.569L224.506 332L227.362 330.789C232.105 328.862 236.416 327.541 241.75 326.495C244.553 325.889 248.163 324.899 249.726 324.293C253.121 322.972 259.695 322.807 263.467 323.963C264.868 324.403 266 324.678 266 324.568C266 324.018 259.965 320.99 257.432 320.219C254.468 319.339 246.223 318.733 242.828 319.118Z" fill="#5A233E"/>
<path d="M256.955 326.037C259.667 326.556 262.483 327 263.213 327C264.36 327 264.308 326.852 262.691 325.963C261.648 325.37 258.936 325 256.433 325H252L256.955 326.037Z" fill="#5A233E"/>
<path d="M275.049 326.461C272.588 326.908 271.646 327.355 272.117 327.746C272.222 327.858 273.688 329.032 275.415 330.373C279.708 333.726 285.572 339.762 290.597 346.021C294.681 351.163 295.675 352.281 295.989 351.945C296.094 351.89 295.413 349.431 294.524 346.524C291.016 335.012 286.671 327.691 282.588 326.461C280.441 325.846 278.661 325.846 275.049 326.461Z" fill="#5A233E"/>
<path d="M244.707 328.766C241.498 331.158 235.669 337.31 232.514 341.582L230 345L232.781 342.38C236.043 339.304 241.605 336.114 246.044 334.747C248.451 333.949 250.376 333.835 254.066 334.063C260.644 334.519 265.939 336.342 273.854 340.956C274.763 341.468 275.886 341.867 276.368 341.867C277.116 341.867 277.17 341.582 276.688 339.703C275.779 336.171 272.945 331.044 271.019 329.449C269.469 328.196 268.613 327.968 265.351 327.911C263.265 327.854 258.291 327.627 254.334 327.399L247.114 327L244.707 328.766Z" fill="#5A233E"/>
<path d="M236.571 330.01C232.305 331.037 225.962 333.296 225.063 334.066C224.783 334.323 225.456 336.222 226.635 338.481C227.758 340.689 228.88 342.229 229.105 341.972C229.386 341.715 231.294 339.559 233.483 337.198C235.616 334.836 238.591 332.012 240.107 330.934C243.25 328.624 242.745 328.47 236.571 330.01Z" fill="#5A233E"/>
<path d="M342.728 336.21C338.742 344.74 332.547 351.63 325.921 354.966L322.419 356.715L322.85 359.231C323.066 360.652 323.281 364.48 323.281 367.815C323.228 374.103 322.419 376.892 319.726 379.9C318.703 381.048 318.703 381.102 320.103 386.734C321.127 390.781 322.312 393.788 324.359 397.342C325.867 400.022 328.184 404.232 329.476 406.638C333.57 414.238 338.634 422.276 343.267 428.51C347.684 434.47 355.064 443 355.818 443C356.68 443 360.182 425.667 361.313 415.66C362.229 407.567 362.229 385.149 361.313 376.291C359.697 360.269 355.818 348.677 348.007 336.484C346.445 334.023 345.045 332 344.883 332C344.775 332 343.806 333.859 342.728 336.21Z" fill="#5A233E"/>
<path d="M276.428 334.245C276.839 334.98 277.559 337.073 278.021 338.94C278.432 340.807 278.998 342.392 279.203 342.505C279.409 342.561 281.875 343.863 284.702 345.39C287.528 346.918 289.892 348.106 289.995 347.993C290.303 347.71 276.891 333 276.274 333C275.863 333 275.914 333.396 276.428 334.245Z" fill="#5A233E"/>
<path d="M220.064 336.561C213.406 340.358 205.417 347.621 201.742 353.178C195.138 363.138 194.179 374.968 199.132 384.927C201.636 389.824 201.529 389.769 202.807 387.568L203.926 385.587L201.849 381.296C197.748 372.822 197.268 366.604 200.304 360.331C203.926 352.848 212.341 348.556 221.289 349.547L224.538 349.877L226.296 347.126L228 344.32L226.136 340.248C225.071 337.937 224.218 335.846 224.218 335.516C224.218 334.58 223.047 334.911 220.064 336.561Z" fill="#5A233E"/>
<path d="M246.398 336.322C245.447 336.546 246.186 336.68 248.775 336.68C250.835 336.68 254.11 337.084 256.171 337.621C259.71 338.473 267 339.325 267 338.876C267 338.742 265.045 338.114 262.668 337.487C258.072 336.232 249.092 335.56 246.398 336.322Z" fill="#5A233E"/>
<path d="M239.388 338.705C237.719 339.68 235.082 341.743 233.468 343.233C230.939 345.641 230.723 346.042 231.208 347.245C231.746 348.564 231.907 348.449 234.867 344.494C236.804 341.858 238.957 339.737 240.733 338.648C244.446 336.413 243.316 336.47 239.388 338.705Z" fill="#5A233E"/>
<path d="M244.806 338.944C242.571 339.802 238 343.234 238 343.978C238 344.093 238.863 343.749 239.93 343.12C242.775 341.461 247.702 339.802 251.054 339.287L254 338.829L251.968 338.429C248.921 337.742 247.651 337.857 244.806 338.944Z" fill="#5A233E"/>
<path d="M253.369 340.542C245.545 341.296 235.793 345.552 234.292 348.837C233.488 350.669 234.399 352.608 236.329 353.093C237.186 353.308 240.723 354.816 244.259 356.432C249.564 358.802 251.225 359.341 253.69 359.341C258.406 359.341 263.764 360.742 268.587 363.165C271.213 364.512 273.249 365.212 273.517 364.943C274.481 363.973 276.786 354.655 276.893 351.315L277 347.868L271.106 345.228C264.461 342.212 258.674 339.896 258.084 340.004C257.87 340.057 255.78 340.273 253.369 340.542Z" fill="#5A233E"/>
<path d="M271.239 343.494C274.264 344.993 276.82 346.103 276.976 345.992C277.133 345.826 276.507 344.993 275.568 344.16C273.899 342.55 271.604 341.606 267.848 341.051C266.179 340.829 266.805 341.273 271.239 343.494Z" fill="#5A233E"/>
<path d="M306.283 342.855C304.233 343.891 301.132 347.758 299.713 351.136C298.031 354.895 298.872 355.548 307.229 356.692C311.54 357.292 318.531 356.965 319.845 356.148C320.738 355.548 317.585 348.412 315.167 345.579C312.118 341.929 309.595 341.167 306.283 342.855Z" fill="#5A233E"/>
<path d="M279 345.08C279 345.65 282.155 348.553 283.552 349.33C285.983 350.574 294 353.373 294 352.958C294 352.129 285.569 347.257 281.224 345.547C279.983 345.08 279 344.873 279 345.08Z" fill="#5A233E"/>
<path d="M228.532 349.05C227.684 350.65 227.862 351.368 228.979 350.816C229.873 350.43 230.32 348.885 229.739 348.168C229.426 347.781 229.069 348.057 228.532 349.05Z" fill="#5A233E"/>
<path d="M277.627 354.704C277.016 358.009 276.353 361.259 276.15 361.975C275.895 362.967 275.946 363.187 276.455 362.857C276.812 362.636 278.391 362.251 279.971 362.086L282.824 361.755L282.977 358.45C283.079 355.751 282.875 354.594 281.703 352.115C279.512 347.433 278.952 347.819 277.627 354.704Z" fill="#5A233E"/>
<path d="M213.072 351.688C203.291 354.47 198.294 362.871 200.526 372.799C201.377 376.454 204.194 383 204.992 383C205.204 383 206.161 381.582 207.118 379.836C211.955 371.054 221.099 355.071 222.215 353.379C222.8 352.507 223.119 351.688 222.959 351.47C222.215 350.761 215.889 350.87 213.072 351.688Z" fill="#5A233E"/>
<path d="M284.039 351.385C285.058 353.953 285.434 356.349 285.273 359.088L285.112 362.055L288.599 363.368C290.53 364.053 292.462 364.794 292.891 364.966C293.535 365.194 293.91 364.338 294.661 360.914C295.198 358.518 295.788 356.178 295.949 355.721C296.11 355.208 295.895 354.923 295.251 354.923C294.661 354.923 291.871 353.895 288.974 352.64C284.843 350.928 283.77 350.643 284.039 351.385Z" fill="#5A233E"/>
<path d="M226.229 353.399C225.029 356.039 224 358.679 224 358.978C224.057 359.426 228 352.95 228 352.452C228 351.506 226.8 352.153 226.229 353.399Z" fill="#5A233E"/>
<path d="M219.609 360.67C211.528 374.605 206 384.381 206 384.868C206 385.516 213.761 393.834 215.622 395.184C217.057 396.21 217.323 396.21 221.416 395.508C223.755 395.076 225.828 394.644 225.988 394.482C226.094 394.32 225.509 391.997 224.605 389.297C221.15 378.764 220.565 365.585 223.17 357.159C223.914 354.89 224.393 353 224.286 353C224.233 353 222.107 356.457 219.609 360.67Z" fill="#5A233E"/>
<path d="M228.35 355.269C225.521 360.142 224.33 364.637 224.081 371.46C223.883 377.038 223.982 378.283 225.124 382.615C226.761 388.843 228.548 393.662 229.342 393.987C229.789 394.15 229.938 392.796 229.938 388.68C229.938 381.695 231.03 375.846 233.263 371.243L235 367.669L233.71 365.558C231.923 362.579 230.93 359.168 230.93 355.864C230.93 352.236 230.186 352.074 228.35 355.269Z" fill="#5A233E"/>
<path d="M233 356.286C233 359.1 234.477 363.134 236.336 365.416C237.047 366.265 237.211 366.212 238.578 365.098L240 363.824L237.266 359.418C233.328 352.995 233 352.73 233 356.286Z" fill="#5A233E"/>
<path d="M236.057 355.469C236.172 355.704 237.148 357.582 238.239 359.577C239.617 362.101 240.536 363.157 241.11 362.981C244.67 361.866 248 360.516 248 360.223C248 359.93 236.976 355 236.23 355C236 355 235.943 355.176 236.057 355.469Z" fill="#5A233E"/>
<path d="M296.116 360.114C295.618 362.131 295.119 364.202 295.019 364.693C294.869 365.184 295.618 366.22 296.765 367.255C297.862 368.237 298.86 369 298.96 369C299.259 369 297.812 357.988 297.363 357.115C297.114 356.625 296.665 357.715 296.116 360.114Z" fill="#5A233E"/>
<path d="M299.663 358.199C300.93 359.671 310.433 374.336 313.072 378.915C314.92 382.186 315.5 382.622 315.976 381.313C316.345 380.278 312.439 372.537 309.43 368.23C306.685 364.414 299.927 357 299.136 357C298.819 357 299.083 357.545 299.663 358.199Z" fill="#5A233E"/>
<path d="M305.305 360.48C309.491 364.899 313.402 370.423 316.045 375.616C318.249 380.09 318.524 380.09 320.727 375.837C321.994 373.406 322.435 364.623 321.498 360.204L320.837 357.055L318.028 357.442C314.338 357.994 308.775 357.994 304.974 357.442L302 357L305.305 360.48Z" fill="#5A233E"/>
<path d="M261.679 365.446L269.802 370L270.56 368.52C271.21 367.154 271.156 366.926 270.289 366.186C268.34 364.592 263.628 362.599 259.946 361.802C252.96 360.208 253.231 360.778 261.679 365.446Z" fill="#5A233E"/>
<path d="M300 362.156C300 362.583 300.215 364.88 300.538 367.283C300.915 370.915 301.346 372.09 302.854 374.28C303.823 375.722 305.385 378.499 306.246 380.475C307.431 383.145 308.023 384 308.885 384C310.177 384 314 382.985 314 382.611C314 382.291 303.069 365.414 301.4 363.224C300.646 362.209 300 361.729 300 362.156Z" fill="#5A233E"/>
<path d="M245.212 363.003C243.765 363.601 242.372 364.253 242.051 364.579C241.783 364.851 242.587 366.916 244.194 369.796C246.712 374.523 246.819 374.578 250.034 375.828C254.213 377.403 260.749 378.327 264.553 377.893C267.714 377.512 267.982 377.186 268.679 373.274L269 371.372L260.267 366.644C250.677 361.481 249.659 361.21 245.212 363.003Z" fill="#5A233E"/>
<path d="M276.781 364.893C274.537 366.136 274.439 367.055 276.342 369.162C277.269 370.189 278.098 371 278.244 371C278.586 371 282 364.947 282 364.407C282 363.65 278.39 364.028 276.781 364.893Z" fill="#5A233E"/>
<path d="M283.156 366.067C282.664 367.24 281.516 369.194 280.641 370.423L279 372.602L280.422 374.668C281.516 376.176 282.938 377.182 285.891 378.466C288.133 379.472 290.047 380.142 290.211 379.974C290.375 379.807 291.086 376.902 291.742 373.495L293 367.295L291.797 366.513C290.539 365.676 285.781 364 284.742 364C284.359 364 283.648 364.95 283.156 366.067Z" fill="#5A233E"/>
<path d="M239.241 366.92L238 367.942L239.397 369.503C240.172 370.31 241.517 371.44 242.397 372.031L244 373L242.345 369.556C241.466 367.727 240.69 366.113 240.586 366.005C240.534 365.951 239.914 366.328 239.241 366.92Z" fill="#5A233E"/>
<path d="M294 368.234C294 368.29 293.55 370.997 293 374.268C292.45 377.54 292 380.36 292 380.585C292 381.093 298.05 383.349 298.55 382.954C298.8 382.785 299 380.303 299 377.427V372.125L297 370.095C295.35 368.403 294 367.557 294 368.234Z" fill="#5A233E"/>
<path d="M235.723 369.608C234.44 371.254 232.878 374.983 232.041 378.658C231.204 382.277 230.646 393.356 231.26 393.959C231.427 394.069 233.882 393.959 236.783 393.63C239.684 393.356 243.589 393.081 245.541 393.081H249V389.352C249 385.842 247.773 380.632 246.099 376.793C245.597 375.641 244.091 374.27 242.027 372.899C240.186 371.747 238.345 370.376 237.899 369.883C237.006 368.786 236.504 368.731 235.723 369.608Z" fill="#5A233E"/>
<path d="M273.287 370.157C272.734 371.187 272.918 371.574 274.392 372.347C276.97 373.764 277.891 372.734 275.988 370.608C274.146 368.546 274.146 368.546 273.287 370.157Z" fill="#5A233E"/>
<path d="M271.462 374.503C270.608 376.336 270.852 376.463 272.926 375.009C274.085 374.25 274.268 373.871 273.658 373.491C272.438 372.67 272.194 372.796 271.462 374.503Z" fill="#5A233E"/>
<path d="M273.451 376.704C271.307 377.914 270.288 378.793 270.074 379.783C269.645 381.707 271.146 387.039 273.13 390.832C274.577 393.636 275.006 394.076 276.722 394.405C277.794 394.57 280.314 395.065 282.352 395.505C284.389 395.89 286.266 396.11 286.48 395.945C287.928 395.065 286.212 387.534 283.049 380.937C281.601 378.078 280.904 377.254 278.92 376.209L276.508 375L273.451 376.704Z" fill="#5A233E"/>
<path d="M301.448 377.313C301.448 378.848 301.292 380.876 301.135 381.753C300.822 383.397 300.875 383.452 303.273 383.781C304.628 384 305.827 384.055 305.983 383.945C306.244 383.616 303.377 377.039 302.282 375.614C301.5 374.572 301.5 374.682 301.448 377.313Z" fill="#5A233E"/>
<path d="M248.128 376.851C249.867 382.763 250.605 386.31 250.605 389.295V392.786L256.825 392.955C260.199 393.067 263.203 392.955 263.414 392.786C263.836 392.448 267.947 380.06 268 379.047C268 378.709 266.84 378.596 264.995 378.765C259.672 379.272 253.715 378.315 248.813 376.175C247.97 375.837 247.864 375.95 248.128 376.851Z" fill="#5A233E"/>
<path d="M283.946 380.729C284.537 381.619 285.661 384.133 286.548 386.229L288.085 390L289.15 386.071C289.741 383.871 290.096 381.986 289.977 381.881C289.859 381.724 288.203 381.043 286.37 380.31L283 379L283.946 380.729Z" fill="#5A233E"/>
<path d="M291.316 383.563C291.105 384.489 290.526 386.979 290 389.236C289.421 391.436 289 394.215 289 395.373C289 397.167 289.211 397.572 290.316 397.862C292.105 398.383 293.474 397.457 295.316 394.62C296.526 392.825 299 386.052 299 384.605C299 384.373 292.632 382 292.053 382C291.842 382 291.526 382.695 291.316 383.563Z" fill="#5A233E"/>
<path d="M317 383.286C317 383.8 317.867 387 317.982 387C318.04 387 317.953 386.086 317.78 385C317.607 383.914 317.376 383 317.231 383C317.116 383 317 383.114 317 383.286Z" fill="#5A233E"/>
<path d="M266.375 388.715C265.552 391.262 264.949 393.429 265.003 393.484C265.113 393.538 266.705 393.755 268.625 393.917C272.247 394.188 272.686 393.863 271.204 391.912C270.765 391.37 269.887 389.311 269.284 387.468C268.625 385.572 268.022 384 267.967 384C267.857 384 267.144 386.113 266.375 388.715Z" fill="#5A233E"/>
<path d="M311.238 384.688C308.598 385.296 307.812 385.738 308.036 386.346C308.261 386.788 308.767 389.552 309.216 392.427C310.058 398.231 310.171 404.976 309.497 410.946C309.216 413.047 309.104 414.871 309.16 414.981C309.665 415.59 316.742 401.106 318.989 394.859L320 392.04L317.641 388.06C316.349 385.904 315.17 384.079 315.001 384.024C314.889 383.914 313.204 384.19 311.238 384.688Z" fill="#5A233E"/>
<path d="M299.831 387.129C299.428 389.967 297.468 394.333 295.558 396.68L294 398.645L296.865 400.173C300.987 402.466 304.455 406.068 306.114 409.834L307.471 413L307.823 408.743C308.275 403.667 307.823 394.333 306.918 389.639C306.516 387.729 306.164 386.092 306.013 385.982C305.913 385.873 304.555 385.6 302.997 385.382L300.182 385L299.831 387.129Z" fill="#5A233E"/>
<path d="M203.671 388.56C202.701 390.216 202.701 390.216 204.21 391.765C205.773 393.368 212.51 397 213.965 397C214.612 397 206.043 387.492 204.911 387.011C204.749 386.904 204.21 387.598 203.671 388.56Z" fill="#5A233E"/>
<path d="M200.827 394.575C196.24 405.708 197.265 417.277 203.687 427.537C206.493 432.066 213.671 438.942 218.906 442.162C221.389 443.745 223.601 445 223.817 445C224.627 445 222.576 439.706 221.011 437.742C219.068 435.341 216.586 430.32 215.722 427.264C214.805 423.826 215.02 418.259 216.154 416.076L217.179 414.221L212.754 410.728C210.379 408.764 207.087 406.362 205.576 405.326C202.608 403.415 201.906 401.833 203.687 401.069C204.173 400.851 206.062 400.087 207.843 399.377L211.081 398.176L209.462 397.522C208.598 397.194 206.763 396.103 205.414 395.12C201.582 392.392 201.744 392.392 200.827 394.575Z" fill="#5A233E"/>
<path d="M194.962 396.463C190.787 399.627 184.257 402.956 179.225 404.538C174.461 406.011 166.7 406.884 162.311 406.448L158.778 406.12L158.082 408.467C157.708 409.776 156.263 412.941 154.817 415.505C153.426 418.07 151.766 421.18 151.178 422.435L150 424.672L156.048 428.383C167.771 435.585 178.476 443.224 193.356 455.01C214.606 471.925 222.528 477.163 231.628 480.491C236.177 482.128 244.848 482.51 249.559 481.255C252.77 480.382 258.872 477.709 259.943 476.617C260.211 476.345 259.515 475.362 258.337 474.38C254.804 471.379 250.683 466.741 247.097 461.885L243.671 457.192L240.138 457.083C233.447 456.92 229.861 454.955 226.543 449.772C225.151 447.535 223.973 446.498 221.993 445.516C216.961 443.006 211.662 438.968 207.112 434.057C199.94 426.418 196.033 417.252 196.033 408.139C196.033 404.756 197.157 398.372 198.227 395.699C198.602 394.88 198.762 394.116 198.655 394.007C198.548 393.898 196.889 395.044 194.962 396.463Z" fill="#5A233E"/>
<path d="M249.787 395.21C249.42 395.925 248.79 397.135 248.476 397.905C248.161 398.73 247.165 400.215 246.221 401.315C245.33 402.36 244.805 403.405 245.068 403.57C245.54 403.845 256.97 405 259.749 405C261.27 405 261.427 404.835 261.427 403.185C261.427 402.25 261.794 399.94 262.213 398.125C262.633 396.31 262.948 394.66 263 394.385C263 394.165 260.221 394 256.76 394C250.888 394 250.521 394.055 249.787 395.21Z" fill="#5A233E"/>
<path d="M238.194 395.38C232.361 395.976 232 396.085 232 397.495C232 398.255 232.361 399.557 232.774 400.371C233.445 401.781 233.91 401.998 237.677 402.595C241.29 403.192 241.961 403.137 243.045 402.378C244.594 401.347 246.71 398.472 247.432 396.465L248 395L243.974 395.108C241.806 395.108 239.174 395.271 238.194 395.38Z" fill="#5A233E"/>
<path d="M264.61 396.163C263.656 400.239 262.861 405.14 263.02 405.471C263.179 405.691 264.875 406.021 266.835 406.242C268.795 406.462 272.504 407.013 275.1 407.453C280.397 408.445 280.45 408.445 282.57 404.369L284 401.67L282.517 401.285C280.238 400.734 278.278 399.523 275.947 397.375C273.987 395.557 273.616 395.392 269.431 395.172C265.034 394.841 264.928 394.896 264.61 396.163Z" fill="#5A233E"/>
<path d="M277.325 396.751C278.273 397.948 282.227 400 283.598 400C284.23 400 284.81 399.544 284.968 398.86C285.232 397.663 283.914 397.036 279.011 396.239C276.85 395.84 276.692 395.897 277.325 396.751Z" fill="#5A233E"/>
<path d="M222.176 397.669L219 398.235L220.412 399.058C221.874 399.933 228.478 401.373 228.932 400.91C229.436 400.447 227.016 396.949 226.209 397.001C225.705 397.052 223.941 397.361 222.176 397.669Z" fill="#5A233E"/>
<path d="M318.705 399.558C317.4 403.205 312.39 413.601 310.302 416.976C309.362 418.554 308.162 421.494 307.744 423.508C306.962 427.1 304.195 433.033 301.116 437.659C300.281 438.966 299.811 440 300.072 440C300.281 440 301.638 439.238 303.099 438.313C312.964 431.89 319.018 419.153 319.853 403.096C320.01 399.776 320.062 397 319.905 397C319.749 397 319.227 398.143 318.705 399.558Z" fill="#5A233E"/>
<path d="M321.424 402.434C320.943 410.454 319.071 418.039 315.917 424.641C312.602 431.461 307.042 437.409 301.321 440.082C298.113 441.61 297.044 442.483 294.05 446.193C287.634 454.16 270.739 470.856 264.911 475.003C264.269 475.439 263.842 476.094 264.056 476.367C264.697 477.513 272.824 481.005 277.689 482.314C291.751 485.97 314.099 483.624 338.693 475.821C342.65 474.566 342.703 474.512 344.414 471.292C346.873 466.655 351.151 456.397 353.236 450.176L355 444.884L350.937 440.628C341.527 430.697 333.4 418.421 322.279 397.196C321.905 396.432 321.638 397.85 321.424 402.434Z" fill="#5A233E"/>
<path d="M210.105 399.747C203.875 401.412 203.821 401.52 207.396 403.992C209.076 405.174 212.109 407.484 214.168 409.096C218.826 412.75 220.126 412.965 218.176 409.687C216.605 406.947 216.551 406.625 217.58 406.625C218.014 406.625 218.935 407.592 219.585 408.774C220.614 410.547 220.993 410.87 221.914 410.547C222.564 410.278 225.056 410.117 227.548 410.117C232.369 410.117 232.369 410.171 231.664 406.786C231.394 405.442 230.96 405.013 229.118 404.475C227.873 404.099 225.652 403.186 224.135 402.433C222.672 401.681 219.693 400.553 217.58 399.908C213.788 398.726 213.734 398.726 210.105 399.747Z" fill="#5A233E"/>
<path d="M290.24 400.543C289.424 400.924 288.88 402.067 288.282 404.678C287.847 406.692 287.303 408.759 287.085 409.249C286.759 409.956 287.303 410.5 289.859 411.806C293.558 413.656 297.202 417.247 298.453 420.131C298.888 421.274 299.269 423.722 299.269 425.572L299.323 429L301.608 426.497C306.122 421.6 307.101 419.696 306.992 416.268C306.775 410.283 302.532 404.678 295.842 401.359C292.579 399.782 291.98 399.673 290.24 400.543Z" fill="#5A233E"/>
<path d="M283.705 404.72C282.677 406.782 281.906 408.509 282.009 408.565C282.112 408.677 282.832 408.844 283.654 408.955C285.093 409.122 285.248 408.955 286.07 406.057C286.584 404.385 286.995 402.546 286.995 401.989C287.098 399.927 285.505 401.209 283.705 404.72Z" fill="#5A233E"/>
<path d="M228.631 403.5C229.268 403.778 230.195 404 230.658 404C231.179 404 231.121 403.778 230.369 403.5C229.732 403.222 228.805 403 228.342 403C227.821 403 227.879 403.222 228.631 403.5Z" fill="#5A233E"/>
<path d="M240.609 405.263C240.021 405.543 238.843 405.767 237.933 405.823C236.381 405.879 236.435 405.991 240.663 410.25C246.175 415.797 251.902 419.047 257.04 419.608L260.572 420L260.786 413.612C260.893 410.082 261 407.168 261 407.168C260.946 407.112 256.986 406.72 252.116 406.215C247.246 405.767 242.911 405.263 242.482 405.095C242.054 404.926 241.198 404.982 240.609 405.263Z" fill="#5A233E"/>
<path d="M233.133 407.883C233.35 409.175 233.674 410.364 233.89 410.571C234.053 410.726 235.512 411.398 237.08 411.966L240 413L236.864 409.796C235.134 408.038 233.512 406.333 233.242 406.074C232.971 405.764 232.917 406.436 233.133 407.883Z" fill="#5A233E"/>
<path d="M262.327 409.626C262.163 410.518 262 413.037 262 415.135C262 419.7 262.109 419.752 267.721 417.706C271.644 416.29 275.022 414.191 277.474 411.778L279 410.151L276.929 409.626C274.26 408.997 266.849 408 264.506 408C262.926 408 262.654 408.21 262.327 409.626Z" fill="#5A233E"/>
<path d="M277.404 413.127C274.246 416.303 267.717 420.102 265.416 420.102C264.827 420.102 264.185 420.385 264.024 420.669C263.596 421.406 268.895 420.839 272.855 419.705C276.708 418.627 279.705 416.756 282.114 413.921C284.415 411.2 284.522 410.689 282.916 410.236C280.936 409.725 280.776 409.782 277.404 413.127Z" fill="#5A233E"/>
<path d="M221.994 412.212C221.442 412.317 221 412.529 221 412.582C221 413.428 224.093 417.764 225.143 418.398C226.414 419.192 226.69 419.192 228.181 418.451C229.065 418.028 230.28 417.658 230.943 417.658C231.993 417.658 232.103 417.394 231.938 414.855L231.772 412.106L227.353 412C224.922 412 222.491 412.053 221.994 412.212Z" fill="#5A233E"/>
<path d="M282.94 414.753C281.031 417.023 279.229 418.407 276.419 419.791C272.973 421.508 271.86 421.784 267.248 422.006L262 422.283L262.318 425.383C262.689 429.037 263.325 429.702 269.687 433.522C275.147 436.789 279.441 438.56 283.523 439.391L286.757 440L289.248 438.007C293.383 434.685 295.928 432.138 296.458 430.643C297.359 428.207 297.094 422.283 295.981 420.013C294.814 417.687 292.27 415.085 289.566 413.424C286.173 411.32 285.802 411.376 282.94 414.753Z" fill="#5A233E"/>
<path d="M234.032 415.128L234.242 417.201L237.544 417.583C239.326 417.746 242.208 418.401 243.833 419.001C247.816 420.42 247.921 420.42 244.829 418.401C241.946 416.437 235.238 413 234.399 413C234.085 413 233.928 413.873 234.032 415.128Z" fill="#5A233E"/>
<path d="M217.83 416.364C216.045 419.418 217.251 427.545 220.387 433.436L221.737 436L222.075 431.255C222.22 428.527 222.75 425.582 223.329 424.164C224.198 421.873 224.198 421.655 223.474 420.073C222.847 418.655 219.422 415 218.795 415C218.698 415 218.264 415.6 217.83 416.364Z" fill="#5A233E"/>
<path d="M230.091 419.301C228.95 419.602 228 420.024 228 420.325C228 420.566 229.077 421.53 230.408 422.434L232.752 424L232.942 421.831C233.195 419.06 232.688 418.578 230.091 419.301Z" fill="#5A233E"/>
<path d="M234 422.216V425.431L237.918 427.993C246.936 433.933 258.907 439.874 259.873 438.893C260.141 438.621 260.517 436.55 260.678 434.26L261 430.173L258.638 428.647C254.559 426.031 246.614 421.943 243.447 420.799C241.783 420.254 238.992 419.6 237.221 419.382L234 419V422.216Z" fill="#5A233E"/>
<path d="M254.711 423.399C261.044 428.021 261.41 428.077 260.782 424.235C260.468 422.62 260.154 422.341 258.479 422.007C257.433 421.784 254.921 421.005 252.932 420.281C250.943 419.613 249.164 419 249.007 419C248.85 419 251.414 421.005 254.711 423.399Z" fill="#5A233E"/>
<path d="M227 422.058C227 422.496 232.182 432.442 232.727 432.988C232.891 433.152 233 431.567 233 429.491L232.945 425.72L230 423.643C228.364 422.496 227 421.785 227 422.058Z" fill="#5A233E"/>
<path d="M224.921 425.453C224.605 426.314 224.185 429.167 224.08 431.912C223.765 437.617 224.29 439.016 227.337 440.523C229.439 441.545 230.437 441.007 231.646 438.101C232.329 436.379 232.276 436.163 229.176 430.136C227.39 426.745 225.866 424 225.709 424C225.604 424 225.236 424.646 224.921 425.453Z" fill="#5A233E"/>
<path d="M303.855 426.262C302.785 427.554 300.814 429.869 299.406 431.377C295.296 435.954 293.663 438 294.057 438C295.352 438 303.911 430.785 303.911 429.708C303.911 429.546 304.418 428.2 305.037 426.692C305.657 425.238 306.051 424 305.995 424C305.882 424 304.925 425.023 303.855 426.262Z" fill="#5A233E"/>
<path d="M145.119 436.645C142.716 441.984 139.779 448.251 138.658 450.594C135.934 456.097 135.934 457.895 138.604 460.892C140.633 463.235 146.561 466.505 149.818 467.104C151.1 467.376 151.741 467.867 152.168 468.902C152.649 470.264 152.489 475.114 151.741 479.364C151.367 481.598 152.382 484.104 154.625 486.557C155.853 487.864 155.96 488.246 155.372 489.117C154.144 491.134 154.625 495.002 156.6 499.47C158.95 504.756 159.004 507.099 156.867 511.73C153.824 518.324 154.945 525.353 159.751 530.257C163.81 534.398 167.067 535.27 174.49 534.398C187.627 532.872 192.219 532.6 199.055 532.872C203.006 533.036 207.599 533.472 209.201 533.798C213.633 534.725 220.522 537.068 222.124 538.267C223.886 539.52 224.687 542.135 224.687 546.603C224.687 551.834 224.153 553.85 222.338 555.703C218.92 559.245 206.691 563.876 187.573 568.944C183.461 570.034 179.029 571.287 177.694 571.668C176.359 572.05 171.82 573.303 167.548 574.393C163.276 575.483 155.212 577.826 149.605 579.624C131.342 585.345 121.355 590.14 116.176 595.807C109.02 603.653 104 624.25 104 646.046C104 663.7 107.097 674.435 113.505 679.012L115.855 680.646L168.242 680.81C235.688 681.028 444.422 681.234 448 680.362C450.189 679.817 452.017 674.653 453.085 670.566C454.314 665.771 454.314 651.931 453.032 643.485C449.721 621.635 442.352 603.435 432.846 593.9C428.788 589.813 425.423 587.797 405.985 577.826C397.761 573.63 388.096 568.453 384.465 566.437C380.887 564.367 377.682 562.678 377.415 562.678C377.202 562.678 376.882 562.46 376.775 562.242C376.721 561.969 374.799 560.607 372.609 559.136C365.667 554.613 358.565 548.728 353.225 543.116C348.365 537.994 342.705 530.148 342.705 528.568C342.705 528.132 342.491 527.805 342.224 527.805C341.637 527.805 338.806 520.558 337.578 516.09C336.991 513.91 336.617 509.769 336.457 503.83C336.136 493.368 337.151 486.774 339.928 481.053C341.69 477.511 341.53 477.13 338.753 478.22C332.985 480.454 314.829 484.54 305.964 485.576C289.41 487.537 277.021 485.848 266.554 480.181L262.335 477.893L257.796 480.236C251.281 483.56 247.543 484.377 240.708 484.05C230.081 483.56 221.537 479.2 203.754 465.36C184.102 449.994 173.422 441.984 166.48 437.298C159.324 432.503 150.459 427 149.818 427C149.658 427 147.576 431.359 145.119 436.645Z" fill="#5A233E"/>
<path d="M234.365 431.309L234 435.673L237.385 442C239.208 445.545 241.031 448.818 241.396 449.309C241.917 450.073 243.271 450.345 247.802 450.618L253.583 451L255.094 449.145C256.604 447.236 259 442.382 259 441.127C259 440.745 258.01 440.036 256.812 439.545C252.75 437.909 243.688 432.945 239.156 429.945L234.677 427L234.365 431.309Z" fill="#5A233E"/>
<path d="M262.473 434.389C262.317 436.218 262.11 438.208 262.006 438.746C261.85 440.037 264.861 440.952 271.765 441.759C276.644 442.351 283.704 441.759 281.627 441.006C275.865 438.746 271.09 436.326 264.705 432.183L262.836 431L262.473 434.389Z" fill="#5A233E"/>
<path d="M297.667 437.783C297.025 438.235 295.247 439.14 293.766 439.844L291 441L293.667 440.698C296.828 440.346 296.828 440.346 298.161 438.436C299.396 436.677 299.297 436.626 297.667 437.783Z" fill="#5A233E"/>
<path d="M232.505 440.189C232.189 440.837 231.346 441.81 230.556 442.404C229.187 443.431 229.029 443.485 226.975 442.62C224.815 441.756 224.815 441.756 225.184 442.944C225.921 445.646 226.975 446.457 231.03 447.807C237.561 450.023 239.193 450.401 238.982 449.644C238.719 448.618 233.558 439 233.295 439C233.137 439 232.768 439.54 232.505 440.189Z" fill="#5A233E"/>
<path d="M259.15 446.058L257 451L260.093 450.651C264.078 450.128 270.159 448.384 274.616 446.407C280.435 443.849 280.435 443.616 274.773 443.5C271.784 443.442 268.062 442.86 265.598 442.163C263.291 441.523 261.404 441 261.404 441C261.351 441.058 260.355 443.267 259.15 446.058Z" fill="#5A233E"/>
<path d="M282.916 444.516C276.418 448.392 266.751 451.568 258.534 452.591C256.063 452.86 253.646 453.452 253.163 453.883C251.928 454.906 247.954 456.897 246.987 456.897C245.537 456.897 245.644 457.705 247.578 460.612C249.887 464.057 258.91 473.585 260.843 474.608C262.132 475.308 262.401 475.2 265.032 473.208C269.221 469.979 274.108 465.618 281.198 458.566C286.89 452.968 295 443.978 295 443.332C295 443.17 292.905 443.009 290.328 443.009C286.031 442.955 285.333 443.116 282.916 444.516Z" fill="#5A233E"/>
<path d="M228 448.218C228 449.438 231.161 452.75 233.518 453.971C236.143 455.307 243 456.586 243 455.714C243 455.482 242.518 454.494 241.929 453.448C241.125 452.053 240.321 451.414 238.821 451.123C237 450.775 230.411 448.799 228.75 448.101C228.321 447.927 228 447.985 228 448.218Z" fill="#5A233E"/>
<path d="M243.897 453.611C244.744 455.021 244.993 455.172 246.588 454.87C248.282 454.518 251.321 453.158 250.972 452.856C250.923 452.806 249.079 452.554 246.887 452.352L243 452L243.897 453.611Z" fill="#5A233E"/>
<path d="M152.5 427C13 357 107 633.5 -2 576M160.5 406C-80 251 444.5 96.5 -1 85.5M343.5 333C514 7.49997 1277.5 300 1442.5 141.5M353.5 442C412 508.5 508.5 494.5 502 679M337.5 477.5C530 408 211.5 1 467 1" stroke="#5A233E" stroke-width="2"/>
</svg>
